<?xml version="1.0" encoding="utf-8"?>
<!-- Generator: Adobe Illustrator 16.0.0, SVG Export Plug-In . SVG Version: 6.00 Build 0)  -->
<!DOCTYPE svg PUBLIC "-//W3C//DTD SVG 1.1//EN" "http://www.w3.org/Graphics/SVG/1.1/DTD/svg11.dtd">
<svg version="1.1" id="Layer_1" xmlns="http://www.w3.org/2000/svg" xmlns:xlink="http://www.w3.org/1999/xlink" x="0px" y="0px"
	 width="1370px" height="650px" viewBox="0 0 1370 650" enable-background="new 0 0 1370 650" xml:space="preserve">
<g>
	<rect x="-1.196" y="-262.213" fill="#47BAEB" width="1371.13" height="1211.774"/>
	<ellipse fill="#E6AE74" cx="1194.413" cy="166.59" rx="53.549" ry="47.325"/>
	<path fill="#C9EBFC" d="M467.073,139.685h88.146c-2.32-7.658-9.994-13.811-19.949-16.178c-2.839-9.295-12.442-16.136-23.858-16.136
		c-13.652,0-24.718,9.782-24.718,21.846c0,0.088,0.005,0.175,0.005,0.263C476.828,130.52,469.062,134.561,467.073,139.685z"/>
	<path fill="#C9EBFC" d="M1235.457,74.866h88.145c-2.321-7.657-9.994-13.811-19.949-16.178
		c-2.838-9.294-12.441-16.136-23.859-16.136c-13.648,0-24.714,9.781-24.714,21.846c0,0.088,0.003,0.174,0.003,0.263
		C1245.211,65.702,1237.444,69.743,1235.457,74.866z"/>
	<path fill="#C9EBFC" d="M17.262,71.535h88.145c-2.32-7.657-9.992-13.81-19.947-16.177C82.619,46.062,73.015,39.222,61.6,39.222
		c-13.652,0-24.718,9.78-24.718,21.845c0,0.088,0.005,0.175,0.005,0.263C27.016,62.372,19.25,66.412,17.262,71.535z"/>
	<path fill="#C9EBFC" d="M758.289,220.277c-2.842-9.295-12.443-16.136-23.86-16.136c-13.65,0-24.719,9.78-24.719,21.845
		c0,0.089,0.007,0.175,0.007,0.264c-11.484,1.211-20.125,6.479-20.125,12.792c0,3.707,2.987,7.05,7.777,9.428
		c-0.299,0.888-0.46,1.807-0.46,2.756c0,6.728,7.913,12.185,17.679,12.185c6.236,0,11.712-2.228,14.859-5.588
		c5.257,3.473,12.178,5.588,19.768,5.588c16.43,0,29.751-9.891,29.751-22.093C778.966,231.471,770.278,223.128,758.289,220.277z"/>
	<path fill="#C9EBFC" d="M315.22,232.773c-5.039-16.492-22.079-28.631-42.333-28.631c-24.223,0-43.856,17.354-43.856,38.76
		c0,0.158,0.011,0.311,0.011,0.466c-20.376,2.151-35.71,11.497-35.71,22.697c0,6.578,5.301,12.513,13.798,16.729
		c-0.53,1.573-0.817,3.208-0.817,4.89c0,11.939,14.047,21.619,31.371,21.619c11.062,0,20.781-3.951,26.366-9.912
		c9.325,6.162,21.605,9.912,35.071,9.912c29.149,0,52.781-17.55,52.781-39.196C351.902,252.63,336.498,237.83,315.22,232.773z"/>
	<path fill="#C9EBFC" d="M1061.584,241.938h148.836c0.982-2.993,1.518-6.117,1.518-9.335c0-17.476-15.405-32.273-36.682-37.331
		c-5.042-16.494-22.081-28.631-42.334-28.631c-24.223,0-43.857,17.354-43.857,38.761c0,0.155,0.011,0.311,0.011,0.466
		c-20.377,2.15-35.712,11.493-35.712,22.696C1053.363,233.547,1056.414,238.159,1061.584,241.938z"/>
	<path fill="#3C96BD" d="M1279.307,527.869v-37.146h-8.338V458.24h-44.303V280.971h-29.103v83.376h-75.713v-25.619h-44.306v25.619
		h-7.225v-31.286h-25.194v68.782h-15.35V263.492h-76.714v56.362h-23.627V199.392H906.76v224.355h-6.905V318.641h-11.4v-86.117
		h-50.443v61.532h-25.029V265.76H793.35v28.296h-11.604v-57.744h4.202c4.643,0,8.409-3.675,8.409-8.207v-5.363
		c0-4.531-3.767-8.206-8.409-8.206h-5.173c0-8.365-6.948-15.145-15.522-15.145c-8.571,0-15.522,6.78-15.522,15.145h-5.17
		c-4.644,0-8.407,3.674-8.407,8.206v5.363c0,4.532,3.764,8.207,8.407,8.207h5.172v56.781h-15.905v50.762h-23.272v9.861h23.272v70.03
		h-30.659v-69.813h-29.102v66.011h-16.669v30.905h-7.026V271.066h-85.151v53.824H524.19v-5.035h-29.867v19.88h-7.76v10.413h-10.189
		v14.2h10.189v102.004h-0.504v24.371h-16.71v-88.879h9.112v-11.715h-9.112v-8.59h-7.224v-16.4h-2.82v-45.284H447.75l3.718-13.846
		h-48.504v13.846h-7.837v33.862h-5.206v-4.99h-16.169v4.99h-16.585v11.422h-6.786v22.686h-22.387v102.898h-7.866v-69.512h-5.271
		v-54.504h-21.341v-33.6h-53.098v42.964h-23.981v5.316h-22.556v34.512h-17.735v63.835H116.73v51.119H71.741v41.653h100.395v1.622
		h943.761v-0.945h138.276v0.761h117.9v-46.075H1279.307z M189.25,503.628h-8.423v-8.187h8.423V503.628z M189.63,488.527h-8.803
		v-8.187h8.803V488.527z M189.63,473.426h-8.803v-8.183h8.803V473.426z M189.63,458.329h-8.803v-8.187h8.803V458.329z
		 M189.63,443.23h-8.803v-8.187h8.803V443.23z M189.63,428.132h-8.803v-8.188h8.803V428.132z M205.869,487.726h-6.582v-7.385h6.582
		V487.726z M205.869,469.423h-6.582v-4.18h6.582V469.423z M205.869,451.117h-6.582v-0.975h6.582V451.117z M205.869,443.23h-6.582
		v-2.033h6.582V443.23z M205.869,428.132h-6.582v-5.238h6.582V428.132z M209.456,414.513h-10.168v-9.922h10.168V414.513z
		 M209.456,396.21h-10.168v-9.922h10.168V396.21z M227.862,447.943h-6.16v-5.728h6.16V447.943z M227.862,414.513h-6.16v-1.466h6.16
		V414.513z M227.862,389.6h-6.16v-3.312h6.16V389.6z M240.419,489.874h-4.997v-5.73h4.997V489.874z M240.419,460.701h-4.997v-5.727
		h4.997V460.701z M240.419,431.528h-4.997v-5.727h4.997V431.528z M240.419,402.356h-4.997v-5.728h4.997V402.356z M253.615,415.113
		h-4.475v-1.827h4.475V415.113z M253.615,349.507h-7.114v-6.943h7.114V349.507z M269.46,400.331h-7.052v-6.942h7.052V400.331z
		 M269.46,364.969h-7.114v-6.941h7.114V364.969z M285.306,486.515h-4.419v-6.939h4.419V486.515z M285.306,451.156h-4.419v-6.942
		h4.419V451.156z M285.306,415.794h-4.419v-6.942h4.419V415.794z M285.306,380.433h-7.114v-6.942h7.114V380.433z M301.151,462.111
		h-5.534v-2.437h5.534V462.111z M301.151,431.256h-5.534l0,0H301.151L301.151,431.256z M301.151,395.895h-7.114v-6.942h7.114
		V395.895z M315.215,488.905h-0.357v-4.063h0.357V488.905z M315.215,479.975h-0.357v-4.064h0.357V479.975z M315.215,471.043h-0.357
		v-4.064h0.357V471.043z M315.215,462.111h-0.357v-4.063h0.357V462.111z M315.215,453.181h-0.357v-4.064h0.357V453.181z
		 M315.215,444.249h-0.357v-4.062h0.357V444.249z M315.215,435.32h-0.357v-4.064h0.357V435.32z M331.876,480.704h-0.003v-4.926
		h0.003V480.704z M331.876,469.881h-0.003v-4.926h0.003V469.881z M331.876,459.053h-0.003v-4.925h0.003V459.053z M331.876,448.229
		h-0.003v-4.926h0.003V448.229z M331.876,437.402h-0.003v-4.926h0.003V437.402z M331.876,426.577h-0.003v-4.928h0.003V426.577z
		 M331.876,415.75h-0.003v-4.926h0.003V415.75z M331.876,404.924h-0.003v-4.926h0.003V404.924z M350.382,480.704h-4.507v-4.926
		h4.507V480.704z M350.382,469.881h-4.507v-4.926h4.507V469.881z M350.382,459.053h-4.507v-4.925h4.507V459.053z M350.382,448.229
		h-4.507v-4.926h4.507V448.229z M350.382,437.402h-4.507v-4.926h4.507V437.402z M350.382,426.577h-4.507v-4.928h4.507V426.577z
		 M350.382,415.75h-4.507v-4.926h4.507V415.75z M350.382,404.924h-4.507v-4.926h4.507V404.924z M367.851,433.093h-7.667v-8.853
		h7.667V433.093z M367.851,383.873h-9.519v-8.851h9.519V383.873z M395.127,383.873h-5.206v-8.851h5.206V383.873z M415.304,402.225
		h-9.357v-10.729h9.357V402.225z M415.304,342.563h-10.995v-10.728h10.995V342.563z M429.546,429.679h-6.321v-10.728h6.321V429.679z
		 M439.719,365.139h-3.454v1.251h-7.542V355.66h10.996V365.139z M450.714,342.563h-10.995v-10.728h10.995V342.563z M553.731,388.299
		h-9.52v-8.852h9.52V388.299z M553.731,358.1h-9.52v-8.85h9.52V358.1z M577.111,295.229h10.995v10.729h-10.995V295.229z
		 M577.111,361.024h10.995v10.729h-10.995V361.024z M591.885,461.954h-9.276v-10.728h9.276V461.954z M604.127,393.252h-10.995
		v-1.757h10.995V393.252z M629.997,347.928h-10.994v-10.729h10.994V347.928z M629.997,311.323h-10.994v-10.729h10.994V311.323z
		 M657.396,489.558h-7.026v-12.441h7.026V489.558z M705.027,490.929h-1.215v-7.591h1.215V490.929z M747.459,392.724h-9.52v-8.851
		h9.52V392.724z M749.731,353.677h-2.272v-8.854h2.272V353.677z M749.731,315.146h-7.032v-8.851h7.032V315.146z M793.35,423.747
		h-11.604V306.008h11.604V423.747z M838.011,392.724h-13.799v-8.851h13.799V392.724z M838.011,318.641h-4.572v46.498h-20.457v-59.13
		h25.029V318.641z M848.258,248.526h10.994v10.728h-10.994V248.526z M864.749,305.958h-10.992v-10.729h10.992V305.958z
		 M964.869,353.294h-22.464v-10.73h22.464V353.294z M979.277,295.229h22.459v10.729h-22.459V295.229z M1012.965,374.604h-22.458
		v-10.729h22.458V374.604z M1038.219,423.747h-8.442v-13.442h8.442V423.747z M1081.672,479.305h-11.352v-49.427h11.352V479.305z
		 M1082.6,391.495h-12.279v-16.891h12.279V391.495z M1134.989,480.472h-17.309v-16.893h17.309V480.472z M1143.644,410.671h-17.308
		v-16.892h17.308V410.671z M1189.588,391.495h-17.312v-16.891h17.312V391.495z M1212.115,465.039h-17.308v-16.893h17.308V465.039z"
		/>
	<g>
		<rect x="80.214" y="458.54" fill="#3485A8" width="4.999" height="124.333"/>
		<rect x="6.659" y="409.312" fill="#3C96BD" width="147.825" height="65.007"/>
		<g>
			<rect x="25.584" y="397.635" fill="#2E7898" width="17.853" height="6.628"/>
			<rect x="32.011" y="401.424" fill="#2E7898" width="4.641" height="13.252"/>
		</g>
		<g>
			<rect x="116.992" y="397.635" fill="#2E7898" width="17.854" height="6.628"/>
			<rect x="123.419" y="401.424" fill="#2E7898" width="4.642" height="13.252"/>
		</g>
	</g>
	<path fill="#3C96BD" d="M1363.506,461.694c0-3.267-1.598-6.196-4.135-8.236c4.608-4.009,7.47-9.58,7.47-15.745
		c0-12.202-11.191-22.09-24.996-22.09c-2.405,0-4.731,0.307-6.932,0.868c0.017-0.358,0.029-0.717,0.029-1.078
		c0-13.13-12.042-23.772-26.899-23.772c-14.855,0-26.9,10.643-26.9,23.772c0,2.175,0.34,4.28,0.958,6.282
		c-9.668,2.752-16.665,10.764-16.665,20.226c0,7.709,4.646,14.457,11.599,18.181c-1.325,2.09-2.079,4.499-2.079,7.064
		c0,3.165,1.149,6.088,3.093,8.474c-0.765,1.959-1.188,4.062-1.188,6.253c0,10.571,9.699,19.142,21.66,19.142
		c2.773,0,5.422-0.463,7.859-1.301v48.847h9.517v-55.257c1.047-1.24,1.927-2.596,2.612-4.04
		c2.989,7.812,11.345,13.437,21.194,13.437c12.357,0,22.378-8.855,22.378-19.775c0-4.438-1.654-8.535-4.448-11.836
		C1361.158,469.132,1363.506,465.662,1363.506,461.694z"/>
	<ellipse fill="#3F9DC6" cx="574.479" cy="602.05" rx="82.538" ry="5.438"/>
</g>
<g display="none">
	<path display="inline" fill="#2B7290" d="M949.249,533.295c-0.999,0.319-2.064,0.622-3.182,0.921
		c1.399-3.784,2.171-7.818,2.171-12.014c0-13.74-8.134-25.796-20.374-32.631l-0.552-1.784c11.61,7.743,26.159-1.585,22.527-8.769
		c-3.011-5.952-18.644,0.279-24.369,2.808l-10.462-33.84c-1.451-4.69-6.93-8.496-12.238-8.496h-49.857h-49.86
		c-5.306,0-10.786,3.806-12.237,8.496l-10.471,33.873c-5.666-2.51-21.417-8.816-24.438-2.841
		c-3.643,7.205,11.001,16.564,22.626,8.702l-0.573,1.851c-12.237,6.833-20.37,18.891-20.37,32.631c0,4.289,0.805,8.412,2.269,12.269
		c-1.483-0.374-2.877-0.767-4.163-1.176c0,0-5.556,4.231,2.213,6.95c0.389,3.931-0.271,15.113,5.485,16.926
		c0.572,0.183,1.296,0.404,2.195,0.657v16.349c0,1.954,1.792,3.542,4.005,3.542h13.351c2.213,0,4.004-1.588,4.004-3.542v-12.353
		c13.687,1.718,34.292,3.209,64.965,3.209c31.745,0,53.009-1.597,66.964-3.395v12.538c0,1.954,1.794,3.542,4.007,3.542h13.351
		c2.21,0,4.005-1.588,4.005-3.542V557.57c0.508-0.146,0.944-0.28,1.313-0.399c5.753-1.813,5.093-12.995,5.484-16.926
		C954.806,537.526,949.249,533.295,949.249,533.295z"/>
	<path display="inline" fill="#2B7290" d="M592.321,533.295c-0.997,0.319-2.065,0.622-3.181,0.921
		c1.401-3.784,2.169-7.818,2.169-12.014c0-13.74-8.134-25.796-20.372-32.631l-0.551-1.784c11.609,7.743,26.158-1.585,22.526-8.769
		c-3.009-5.952-18.642,0.279-24.368,2.808l-10.462-33.84c-1.451-4.69-6.93-8.496-12.239-8.496h-49.858h-49.857
		c-5.309,0-10.789,3.806-12.24,8.496l-10.471,33.873c-5.666-2.51-21.417-8.816-24.438-2.841
		c-3.644,7.205,11.001,16.564,22.626,8.702l-0.573,1.851c-12.238,6.833-20.372,18.891-20.372,32.631
		c0,4.289,0.804,8.412,2.267,12.269c-1.481-0.374-2.875-0.767-4.161-1.176c0,0-5.556,4.231,2.212,6.95
		c0.391,3.931-0.268,15.113,5.486,16.926c0.572,0.183,1.297,0.404,2.194,0.657v16.349c0,1.954,1.794,3.542,4.006,3.542h13.351
		c2.212,0,4.004-1.588,4.004-3.542v-12.353c13.685,1.718,34.292,3.209,64.963,3.209c31.748,0,53.011-1.597,66.965-3.395v12.538
		c0,1.954,1.792,3.542,4.005,3.542h13.351c2.21,0,4.004-1.588,4.004-3.542V557.57c0.509-0.146,0.945-0.28,1.315-0.399
		c5.752-1.813,5.094-12.995,5.484-16.926C597.878,537.526,592.321,533.295,592.321,533.295z"/>
	<g display="inline">
		<rect x="0.596" y="581.729" fill="#F2F2F2" width="325.561" height="20.727"/>
		<rect x="202.375" y="581.729" fill="#9C9EA0" width="38.563" height="20.727"/>
		<rect x="127.396" y="581.729" fill="#9C9EA0" width="38.562" height="20.727"/>
		<rect x="52.416" y="581.729" fill="#9C9EA0" width="38.563" height="20.727"/>
		<rect x="0.901" y="581.729" fill="#9C9EA0" width="15.097" height="20.727"/>
		<rect x="279.501" y="581.729" fill="#9C9EA0" width="38.563" height="20.727"/>
	</g>
	<g display="inline">
		<rect x="1141.249" y="581.729" fill="#F2F2F2" width="229.063" height="20.727"/>
		<rect x="1146.011" y="581.729" fill="#9C9EA0" width="38.562" height="20.727"/>
		<rect x="1223.138" y="581.729" fill="#9C9EA0" width="38.562" height="20.727"/>
		<rect x="1304.542" y="581.729" fill="#9C9EA0" width="38.563" height="20.727"/>
	</g>
	<g display="inline">
		<g>
			<rect x="259.417" y="573.196" fill="#506391" width="15.71" height="4.731"/>
			<rect x="255.042" y="576.822" fill="#506391" width="24.459" height="3.63"/>
		</g>
		<g>
			<g>
				<path fill="#506391" d="M272.743,573.263h-9.998V263.808c0-40.716,37.482-73.842,83.554-73.842h292.077v8.836H346.299
					c-40.559,0-73.556,29.162-73.556,65.006V573.263z"/>
			</g>
			<rect x="511.261" y="184.917" fill="#393E70" stroke="#393E70" stroke-miterlimit="10" width="127.115" height="75.105"/>
			<polygon fill="#21234B" stroke="#393E70" stroke-miterlimit="10" points="638.375,260.022 511.261,260.022 517.149,189.585 
				632.787,189.856 			"/>
			<rect x="258.991" y="305.332" fill="#393E70" stroke="#393E70" stroke-miterlimit="10" width="16.425" height="96.735"/>
			<rect x="275.416" y="314.339" fill="#2E315E" stroke="#393E70" stroke-miterlimit="10" width="28.804" height="7.995"/>
			<rect x="275.416" y="386.288" fill="#2E315E" stroke="#393E70" stroke-miterlimit="10" width="28.804" height="7.995"/>
			<g>
				<rect x="290.234" y="296.243" fill="#E6E6E6" width="34.992" height="112.342"/>
				<rect x="287.557" y="299.109" fill="#393E70" stroke="#393E70" stroke-miterlimit="10" width="40.347" height="106.608"/>
				<g>
					<g>
						<g>
							<path fill="#2E325B" d="M322.523,320.239c0,7.22-6.623,11.765-14.793,11.765c-8.168,0-14.792-4.545-14.792-11.765
								c0-7.221,6.623-13.073,14.792-13.073C315.9,307.166,322.523,313.019,322.523,320.239z"/>
							<path fill="#0D0D34" d="M307.729,313.981c6.253,0,11.73,2.215,14.77,5.533c-0.426-6.882-6.875-12.348-14.77-12.348
								c-7.893,0-14.342,5.465-14.768,12.348C296.001,316.196,301.478,313.981,307.729,313.981z"/>
							<ellipse fill="#E15D5C" cx="307.73" cy="320.239" rx="13.314" ry="11.765"/>
						</g>
					</g>
					<g>
						<g>
							<path fill="#2E325B" d="M322.523,353.066c0,7.221-6.623,11.768-14.793,11.768c-8.168,0-14.792-4.547-14.792-11.768
								c0-7.219,6.623-13.072,14.792-13.072C315.9,339.994,322.523,345.848,322.523,353.066z"/>
							<path fill="#0D0D34" d="M307.729,346.809c6.253,0,11.73,2.215,14.77,5.533c-0.426-6.882-6.875-12.348-14.77-12.348
								c-7.893,0-14.342,5.466-14.768,12.348C296.001,349.023,301.478,346.809,307.729,346.809z"/>
							<ellipse fill="#EDD27D" cx="307.73" cy="353.066" rx="13.314" ry="11.768"/>
						</g>
					</g>
					<g>
						<g>
							<path fill="#2E325B" d="M322.523,385.896c0,7.221-6.623,11.767-14.793,11.767c-8.168,0-14.792-4.546-14.792-11.767
								c0-7.22,6.623-13.073,14.792-13.073C315.9,372.822,322.523,378.676,322.523,385.896z"/>
							<path fill="#0D0D34" d="M307.729,379.638c6.253,0,11.73,2.215,14.77,5.533c-0.426-6.883-6.875-12.349-14.77-12.349
								c-7.893,0-14.342,5.466-14.768,12.349C296.001,381.853,301.478,379.638,307.729,379.638z"/>
							<ellipse fill="#69947B" cx="307.73" cy="385.896" rx="13.314" ry="11.767"/>
						</g>
					</g>
				</g>
			</g>
			<g>
				<rect x="231.549" y="314.339" fill="#2E315E" stroke="#393E70" stroke-miterlimit="10" width="28.804" height="7.995"/>
				<rect x="231.549" y="386.288" fill="#2E315E" stroke="#393E70" stroke-miterlimit="10" width="28.804" height="7.995"/>
				<g>
					<polygon fill="#0D0D34" points="223.771,331.237 209.758,331.237 199.361,308.081 223.771,308.081 					"/>
					<rect x="220.973" y="307.313" fill="#2E325B" width="5.967" height="24.691"/>
				</g>
				<g>
					<polygon fill="#0D0D34" points="223.771,363.992 209.758,363.992 199.361,340.835 223.771,340.835 					"/>
					<rect x="220.973" y="340.067" fill="#2E325B" width="5.967" height="24.692"/>
				</g>
				<g>
					<polygon fill="#0D0D34" points="223.771,396.632 209.758,396.632 199.361,373.475 223.771,373.475 					"/>
					<rect x="220.973" y="372.707" fill="#2E325B" width="5.967" height="24.692"/>
				</g>
				<g>
					<rect x="226.939" y="296.243" fill="#E6E6E6" width="19.76" height="112.342"/>
					<rect x="225.427" y="299.109" fill="#393E70" stroke="#393E70" stroke-miterlimit="10" width="22.785" height="106.608"/>
				</g>
			</g>
			<g>
				<path fill="#E15D5C" d="M537.619,201.386h5.638v4.981h-5.638V201.386z M537.619,207.365h5.638v4.982h-5.638V207.365z
					 M537.619,213.344h5.638v4.982h-5.638V213.344z M537.619,219.322h5.638v4.983h-5.638V219.322z M537.619,237.26h5.638v4.982
					h-5.638V237.26z M544.384,201.386h5.639v4.981h-5.639V201.386z M544.384,219.322h5.639v4.983h-5.639V219.322z M544.384,243.24
					h5.639v4.981h-5.639V243.24z M551.15,201.386h5.637v4.981h-5.637V201.386z M551.15,219.322h5.637v4.983h-5.637V219.322z
					 M551.15,243.24h5.637v4.981h-5.637V243.24z M557.915,201.386h5.638v4.981h-5.638V201.386z M557.915,219.322h5.638v4.983h-5.638
					V219.322z M557.915,243.24h5.638v4.981h-5.638V243.24z M564.68,201.386h5.639v4.981h-5.639V201.386z M564.68,225.302h5.639
					v4.982h-5.639V225.302z M564.68,231.28h5.639v4.983h-5.639V231.28z M564.68,237.26h5.639v4.982h-5.639V237.26z"/>
				<path fill="#E15D5C" d="M578.211,207.365h5.637v4.982h-5.637V207.365z M578.211,237.26h5.637v4.982h-5.637V237.26z
					 M584.976,201.386h5.638v4.981h-5.638V201.386z M584.976,243.24h5.638v4.981h-5.638V243.24z M591.741,201.386h5.637v4.981
					h-5.637V201.386z M591.741,219.322h5.637v4.983h-5.637V219.322z M591.741,243.24h5.637v4.981h-5.637V243.24z M598.507,201.386
					h5.637v4.981h-5.637V201.386z M598.507,219.322h5.637v4.983h-5.637V219.322z M598.507,243.24h5.637v4.981h-5.637V243.24z
					 M605.271,207.365h5.639v4.982h-5.639V207.365z M605.271,213.344h5.639v4.982h-5.639V213.344z M605.271,225.302h5.639v4.982
					h-5.639V225.302z M605.271,231.28h5.639v4.983h-5.639V231.28z M605.271,237.26h5.639v4.982h-5.639V237.26z"/>
			</g>
		</g>
	</g>
	<g display="inline">
		<g>
			<rect x="1173.078" y="573.191" fill="#506391" width="15.713" height="4.733"/>
			<rect x="1168.706" y="576.82" fill="#506391" width="24.46" height="3.629"/>
		</g>
		<g>
			<rect x="1175.464" y="296.243" fill="#506391" width="9.997" height="277.015"/>
			<rect x="1172.789" y="305.331" fill="#393E70" stroke="#393E70" stroke-miterlimit="10" width="16.425" height="96.732"/>
			<rect x="1143.988" y="314.338" fill="#2E315E" stroke="#393E70" stroke-miterlimit="10" width="28.801" height="7.995"/>
			<rect x="1143.988" y="386.285" fill="#2E315E" stroke="#393E70" stroke-miterlimit="10" width="28.801" height="7.994"/>
			<g>
				<rect x="1122.98" y="296.243" fill="#E6E6E6" width="34.991" height="112.338"/>
				<rect x="1120.3" y="299.109" fill="#393E70" stroke="#393E70" stroke-miterlimit="10" width="40.35" height="106.606"/>
				<g>
					<g>
						<g>
							<path fill="#2E325B" d="M1118.193,327.495c0,10.88,9.979,17.729,22.288,17.729c12.313,0,22.29-6.85,22.29-17.729
								c0-10.879-9.978-19.698-22.29-19.698C1128.172,307.797,1118.193,316.616,1118.193,327.495z"/>
							<path fill="#0D0D34" d="M1140.481,318.066c-9.42,0-17.673,3.337-22.254,8.337c0.645-10.371,10.36-18.606,22.254-18.606
								c11.899,0,21.611,8.235,22.253,18.606C1158.153,321.403,1149.903,318.066,1140.481,318.066z"/>
							<ellipse fill="#22244C" stroke="#393E70" stroke-miterlimit="10" cx="1140.482" cy="327.495" rx="20.061" ry="17.729"/>
						</g>
					</g>
					<g>
						<g>
							<path fill="#2E325B" d="M1118.193,376.853c0,10.879,9.979,17.729,22.288,17.729c12.313,0,22.29-6.85,22.29-17.729
								c0-10.88-9.978-19.7-22.29-19.7C1128.172,357.152,1118.193,365.973,1118.193,376.853z"/>
							<path fill="#0D0D34" d="M1140.481,367.422c-9.42,0-17.673,3.338-22.254,8.339c0.645-10.372,10.36-18.608,22.254-18.608
								c11.899,0,21.611,8.236,22.253,18.608C1158.153,370.76,1149.903,367.422,1140.481,367.422z"/>
							<ellipse fill="#22244C" stroke="#393E70" stroke-miterlimit="10" cx="1140.482" cy="376.853" rx="20.061" ry="17.729"/>
						</g>
						<g>
							<ellipse fill="#69947B" cx="1140.77" cy="364.476" rx="2.952" ry="2.61"/>
							<path fill="#69947B" d="M1148.145,376.875l-5.143-8.027c-0.226-0.353-0.594-0.533-0.873-0.465
								c-0.051-0.012-0.103-0.029-0.156-0.029h-2.979c-0.039,0-0.07,0.014-0.106,0.018c-0.278-0.031-0.614,0.161-0.813,0.504
								l-4.709,8.239c-0.226,0.398-0.173,0.828,0.121,0.959l1.203,0.535c0.293,0.133,0.715-0.085,0.943-0.484l2.68-4.688v4.243
								l-1.622,6.444l-3.935,5.554c-0.2,0.281-0.105,0.651,0.216,0.827l1.299,0.721c0.318,0.177,0.736,0.092,0.94-0.19l4.118-5.813
								c0.059-0.083,0.085-0.172,0.095-0.263c0.016-0.033,0.04-0.06,0.048-0.095l1.116-4.432l1.434,3.59l0.643,6.744
								c0.033,0.333,0.361,0.576,0.736,0.548l1.525-0.111c0.375-0.028,0.654-0.32,0.625-0.651l-0.642-6.745
								c0.014-0.102,0.014-0.206-0.027-0.311l-2.231-5.577v-5.065l3.285,5.128c0.25,0.388,0.686,0.589,0.968,0.443l1.174-0.584
								C1148.364,377.696,1148.394,377.264,1148.145,376.875z"/>
						</g>
					</g>
				</g>
				<g>
					<ellipse fill="#E15D5C" cx="1140.045" cy="314.338" rx="3.098" ry="2.738"/>
					<path fill="#E15D5C" d="M1133.602,329.434h1.821v-8.87h0.543v8.87h8.201v-8.87h0.541v8.87h1.782
						c0.469,0,0.846-0.334,0.846-0.746v-9.71c0-0.413-0.377-0.747-0.846-0.747h-12.889c-0.467,0-0.846,0.334-0.846,0.747v9.71
						C1132.756,329.1,1133.135,329.434,1133.602,329.434z"/>
					<path fill="#E15D5C" d="M1139.687,340.691c0,0.428-0.319,0.773-0.714,0.773h-2.292c-0.396,0-0.715-0.346-0.715-0.773v-13.074
						c0-0.428,0.318-0.773,0.715-0.773h2.292c0.395,0,0.714,0.346,0.714,0.773V340.691z"/>
					<path fill="#E15D5C" d="M1144.203,340.691c0,0.428-0.318,0.773-0.713,0.773h-2.294c-0.396,0-0.715-0.346-0.715-0.773v-13.074
						c0-0.428,0.319-0.773,0.715-0.773h2.294c0.395,0,0.713,0.346,0.713,0.773V340.691z"/>
				</g>
			</g>
			<g>
				<rect x="1187.853" y="314.338" fill="#2E315E" stroke="#393E70" stroke-miterlimit="10" width="28.806" height="7.995"/>
				<rect x="1187.853" y="386.285" fill="#2E315E" stroke="#393E70" stroke-miterlimit="10" width="28.806" height="7.994"/>
				<g>
					<polygon fill="#0D0D34" points="1224.437,331.236 1238.448,331.236 1248.846,308.08 1224.437,308.08 					"/>
					<rect x="1221.268" y="307.312" fill="#2E325B" width="5.963" height="24.692"/>
				</g>
				<g>
					<polygon fill="#0D0D34" points="1224.437,363.988 1238.448,363.988 1248.846,340.834 1224.437,340.834 					"/>
					<rect x="1221.268" y="340.066" fill="#2E325B" width="5.963" height="24.689"/>
				</g>
				<g>
					<polygon fill="#0D0D34" points="1224.437,396.629 1238.448,396.629 1248.846,373.472 1224.437,373.472 					"/>
					<rect x="1221.268" y="372.704" fill="#2E325B" width="5.963" height="24.691"/>
				</g>
				<g>
					<rect x="1201.505" y="296.243" fill="#E6E6E6" width="19.763" height="112.338"/>
					<rect x="1199.995" y="299.109" fill="#393E70" stroke="#393E70" stroke-miterlimit="10" width="22.783" height="106.606"/>
				</g>
			</g>
		</g>
	</g>
	<g display="inline">
		<path fill="#F2F2F2" d="M660.249,487.614c0,0,27.557-13.42,32.029-4.569c4.475,8.851-13.852,20.4-28.01,10.1
			C650.108,482.841,658.228,488.548,660.249,487.614z"/>
		<path fill="#F2F2F2" d="M489.678,487.614c0,0-27.555-13.42-32.029-4.569c-4.475,8.851,13.852,20.4,28.011,10.1
			C499.819,482.841,491.699,488.548,489.678,487.614z"/>
		<path fill="#3C3E3E" d="M495.206,598.171c0,2.366-2.17,4.284-4.847,4.284h-16.152c-2.676,0-4.845-1.918-4.845-4.284v-32.402
			c0-2.368,2.169-4.283,4.845-4.283h16.152c2.677,0,4.847,1.915,4.847,4.283V598.171z"/>
		<path fill="#3C3E3E" d="M654.818,598.171c0,2.366,2.169,4.284,4.845,4.284h16.154c2.675,0,4.846-1.918,4.846-4.284v-32.402
			c0-2.368-2.171-4.283-4.846-4.283h-16.154c-2.676,0-4.845,1.915-4.845,4.283V598.171z"/>
		<path fill="#F2F2F2" d="M678.206,536.289L650.139,445.5c-1.754-5.677-8.384-10.278-14.808-10.278h-60.319h-60.32
			c-6.423,0-13.052,4.602-14.808,10.278l-28.068,90.789c-1.754,5.677,2.029,10.279,8.453,10.279h94.743h94.743
			C676.177,546.568,679.961,541.966,678.206,536.289z"/>
		<path fill="#666666" d="M673.443,538.481l-26.772-86.598c-1.673-5.416-7.997-9.807-14.124-9.807h-57.536h-57.536
			c-6.127,0-12.451,4.391-14.124,9.807l-26.772,86.598c-1.673,5.416,1.937,9.806,8.062,9.806h90.37h90.371
			C671.508,548.287,675.118,543.897,673.443,538.481z"/>
		<path fill="#F2F2F2" d="M690.34,535.289c0,25.781-23.648,46.68-52.819,46.68h-125.02c-29.169,0-52.817-20.898-52.817-46.68l0,0
			c0-25.781,23.648-46.68,52.817-46.68h125.02C666.691,488.609,690.34,509.508,690.34,535.289L690.34,535.289z"/>
		<g>
			<path fill="#C3C5C7" d="M573.8,491.321h-57.665c-14.428,0-27.417,5.438-36.503,14.11c15.636,14.641,51.856,24.945,94.168,25.14
				V491.321z"/>
			<path fill="#C3C5C7" d="M633.888,491.321h-57.665v39.25c42.313-0.194,78.533-10.499,94.17-25.14
				C661.304,496.759,648.316,491.321,633.888,491.321z"/>
		</g>
		<path fill="#EBD065" d="M473.972,515.229c-5.838,0-10.137,15.057-7.229,19.624c2.907,4.568,26.813,9.429,31.336,6.29
			C502.602,538.003,483.389,515.229,473.972,515.229z"/>
		<path fill="#EBD065" d="M676.051,515.229c5.838,0,10.137,15.057,7.229,19.624c-2.907,4.568-26.813,9.429-31.336,6.29
			C647.422,538.003,666.635,515.229,676.051,515.229z"/>
		<path fill="#666666" d="M691.565,548.709c-32.029,10.241-117.087,10.607-117.087,10.607s-85.057-0.366-117.086-10.607
			c0,0-6.721,5.121,2.678,8.41c0.473,4.755-0.324,18.286,6.637,20.479c6.962,2.193,32.31,9.511,107.093,9.511
			c74.784,0,101.488-7.317,108.451-9.511c6.96-2.193,6.165-15.725,6.634-20.479C698.286,553.83,691.565,548.709,691.565,548.709z"/>
		<rect x="540.123" y="571.263" fill="#CCCCCC" width="69.778" height="10.706"/>
		<g>
			<path fill="#A3A5A8" d="M643.673,556.299l-2.781-8.997c-1.539-4.979-7.353-9.015-12.985-9.015h-52.896h-52.896
				c-5.632,0-11.446,4.036-12.984,9.015l-2.81,9.083c33.431,2.779,68.156,2.932,68.156,2.932S609.928,559.162,643.673,556.299z"/>
		</g>
		<polygon fill="#4A4C4B" points="469.362,567.909 469.362,571.263 493.828,576.615 		"/>
		<polygon fill="#4A4C4B" points="680.663,567.909 680.663,571.263 656.196,576.615 		"/>
	</g>
	<g display="inline">
		<path fill="#3F9DC6" d="M1047.05,598.274c0,3.113-45.236,5.642-101.036,5.642c-55.805,0-101.042-2.528-101.042-5.642
			s45.237-5.638,101.042-5.638C1001.813,592.637,1047.05,595.161,1047.05,598.274z"/>
		<g>
			<path fill="#A58233" d="M1030.499,365.859c0,15.862-14.553,28.722-32.499,28.722H893.883c-17.95,0-32.5-12.859-32.5-28.722l0,0
				c0-15.863,14.55-28.723,32.5-28.723H998C1015.946,337.137,1030.499,349.996,1030.499,365.859L1030.499,365.859z"/>
			<path fill="#E4B24A" d="M1066.181,516.607c0,17.416-15.972,31.533-35.681,31.533H861.349c-19.707,0-35.681-14.117-35.681-31.533
				V377.234c0-17.414,15.974-31.533,35.681-31.533H1030.5c19.709,0,35.681,14.119,35.681,31.533V516.607z"/>
			<g>
				<path fill="#323434" d="M865.349,584.37c0,9.985-7.496,18.085-16.743,18.085h-7.439c-9.248,0-16.746-8.1-16.746-18.085v-32.153
					c0-9.987,7.498-18.085,16.746-18.085h7.439c9.247,0,16.743,8.098,16.743,18.085V584.37z"/>
				<path fill="#323434" d="M1067.429,584.37c0,9.985-7.496,18.085-16.745,18.085h-7.438c-9.248,0-16.743-8.1-16.743-18.085v-32.153
					c0-9.987,7.495-18.085,16.743-18.085h7.438c9.249,0,16.745,8.098,16.745,18.085V584.37z"/>
			</g>
			<path fill="#CB9F41" d="M1084.678,526.535c0,14.509-13.313,26.273-29.734,26.273H836.904c-16.419,0-29.732-11.765-29.732-26.273
				v-21.021c0-14.515,13.313-26.279,29.732-26.279h218.039c16.421,0,29.734,11.765,29.734,26.279V526.535z"/>
			<path fill="#E4B24A" d="M1084.678,531.211c0,14.509-13.313,26.276-29.734,26.276H836.904c-16.419,0-29.732-11.768-29.732-26.276
				v-21.022c0-14.512,13.313-26.279,29.732-26.279h218.039c16.421,0,29.734,11.768,29.734,26.279V531.211z"/>
			<g>
				<ellipse fill="#E2E7EA" cx="834.586" cy="512.817" rx="17.84" ry="15.768"/>
				<path fill="#E2E7EA" d="M1075.103,512.817c0,8.708-7.988,15.768-17.839,15.768c-9.856,0-17.843-7.06-17.843-15.768
					s7.986-15.766,17.843-15.766C1067.114,497.052,1075.103,504.109,1075.103,512.817z"/>
			</g>
			<path fill="#A58233" d="M1020.921,533.447c0,14.67-33.579,26.569-74.996,26.569c-41.418,0-74.994-11.899-74.994-26.569
				c0-14.676,33.576-26.572,74.994-26.572C987.342,506.875,1020.921,518.771,1020.921,533.447z"/>
			<path fill="#806623" d="M898.659,512.817c-5.932,1.707-11.109,3.729-15.337,5.997h125.206c-4.228-2.268-9.404-4.29-15.335-5.997
				H898.659z"/>
			<path fill="#806623" d="M871.117,531.582h149.619c-0.406-2.073-1.48-4.081-3.149-5.995h-143.32
				C872.595,527.501,871.521,529.509,871.117,531.582z"/>
			<path fill="#806623" d="M877.52,544.352h136.813c2.404-1.89,4.2-3.899,5.305-5.996H872.213
				C873.317,540.452,875.114,542.462,877.52,544.352z"/>
			<path fill="#806623" d="M911.85,557.119h68.149c8.321-1.505,15.741-3.548,21.902-5.994H889.948
				C896.111,553.571,903.529,555.614,911.85,557.119z"/>
			<path fill="#515252" d="M1089.22,557.487c0,7.839-7.193,14.192-16.063,14.192H818.689c-8.87,0-16.059-6.354-16.059-14.192l0,0
				c0-7.846,7.188-14.197,16.059-14.197h254.468C1082.026,543.29,1089.22,549.642,1089.22,557.487L1089.22,557.487z"/>
			<path fill="#E4B24A" d="M1030.5,345.701H861.349c-19.707,0-35.681,14.119-35.681,31.533v5.842h240.513v-5.842
				C1066.181,359.82,1050.209,345.701,1030.5,345.701z"/>
			<rect x="870.822" y="345.701" fill="#E2E7EA" width="150.207" height="29.588"/>
			<g>
				<ellipse fill="#BD4E4D" cx="848.573" cy="362.832" rx="8.812" ry="7.786"/>
				<ellipse fill="#BD4E4D" cx="1043.276" cy="362.832" rx="8.811" ry="7.786"/>
			</g>
			<g>
				<rect x="834.588" y="383.076" fill="#666666" width="107.885" height="69.489"/>
				<rect x="949.374" y="383.076" fill="#666666" width="107.89" height="69.489"/>
			</g>
			<polygon fill="#323434" points="978.236,444.663 904.148,451.091 893.628,452.002 872.146,453.868 872.471,456.771 
				904.471,453.997 904.31,452.544 978.397,446.113 			"/>
			<polygon fill="#323434" points="1037.901,446.511 963.812,452.94 953.292,453.852 931.813,455.716 932.133,458.621 
				964.137,455.844 963.977,454.394 1038.063,447.964 			"/>
			<g>
				<rect x="1075.103" y="394.581" fill="#323434" width="23.128" height="64.04"/>
				<rect x="1066.181" y="400.594" fill="#515252" width="20.484" height="6.229"/>
				<rect x="1066.181" y="446.433" fill="#515252" width="20.484" height="6.229"/>
			</g>
			<g>
				<rect x="793.793" y="394.581" fill="#323434" width="23.129" height="64.04"/>
				<rect x="805.355" y="400.594" fill="#515252" width="20.484" height="6.229"/>
				<rect x="805.355" y="446.433" fill="#515252" width="20.484" height="6.229"/>
			</g>
			<g>
				<path fill="#323434" d="M898.659,366.723c2.313,0,3.471-0.699,3.471-2.099c0-0.433-0.104-0.798-0.31-1.102
					c-0.203-0.303-0.485-0.565-0.832-0.786c-0.352-0.223-0.75-0.413-1.2-0.576c-0.45-0.161-0.927-0.323-1.428-0.484
					c-0.578-0.175-1.127-0.373-1.645-0.595c-0.518-0.223-0.967-0.485-1.347-0.788c-0.382-0.303-0.682-0.662-0.902-1.08
					c-0.222-0.416-0.33-0.921-0.33-1.514c0-1.224,0.471-2.18,1.414-2.866c0.945-0.687,2.248-1.029,3.907-1.029
					c0.96,0,1.832,0.091,2.614,0.272c0.783,0.182,1.36,0.38,1.726,0.595l-0.711,1.595c-0.316-0.174-0.793-0.346-1.426-0.516
					c-0.632-0.166-1.368-0.252-2.203-0.252c-0.426,0-0.825,0.041-1.188,0.121c-0.366,0.081-0.685,0.203-0.96,0.365
					c-0.274,0.161-0.489,0.365-0.651,0.615c-0.158,0.249-0.238,0.541-0.238,0.878c0,0.377,0.083,0.693,0.251,0.949
					c0.168,0.255,0.401,0.48,0.709,0.675c0.304,0.195,0.658,0.375,1.062,0.536s0.849,0.323,1.335,0.484
					c0.686,0.241,1.316,0.483,1.885,0.727c0.569,0.241,1.067,0.532,1.486,0.868c0.416,0.337,0.741,0.736,0.97,1.201
					s0.344,1.025,0.344,1.686c0,1.225-0.508,2.166-1.521,2.826c-1.013,0.659-2.44,0.988-4.281,0.988
					c-0.627,0-1.201-0.037-1.727-0.111s-0.992-0.16-1.405-0.262c-0.412-0.102-0.765-0.209-1.061-0.323
					c-0.297-0.114-0.528-0.212-0.698-0.292l0.664-1.615c0.349,0.176,0.882,0.37,1.596,0.584
					C896.748,366.615,897.621,366.723,898.659,366.723z"/>
				<path fill="#323434" d="M912.158,368.357c-0.96,0-1.804-0.135-2.527-0.404c-0.723-0.268-1.331-0.645-1.826-1.129
					c-0.494-0.485-0.863-1.061-1.106-1.727c-0.245-0.667-0.365-1.402-0.365-2.209c0-0.809,0.132-1.549,0.399-2.223
					c0.265-0.672,0.642-1.254,1.131-1.746c0.485-0.49,1.085-0.873,1.793-1.149s1.498-0.415,2.363-0.415
					c0.533,0,1.065,0.041,1.6,0.122c0.533,0.081,1.04,0.208,1.53,0.383l-0.481,1.595c-0.318-0.134-0.69-0.242-1.106-0.322
					c-0.419-0.081-0.866-0.121-1.337-0.121c-1.186,0-2.096,0.329-2.727,0.988c-0.633,0.66-0.951,1.623-0.951,2.889
					c0,0.564,0.073,1.082,0.218,1.553c0.144,0.471,0.374,0.875,0.685,1.211c0.313,0.338,0.712,0.596,1.2,0.777
					c0.485,0.182,1.081,0.273,1.781,0.273c0.563,0,1.074-0.047,1.53-0.143c0.457-0.092,0.814-0.193,1.073-0.302l0.296,1.574
					c-0.121,0.067-0.296,0.132-0.524,0.191c-0.227,0.061-0.486,0.114-0.774,0.161c-0.292,0.047-0.599,0.088-0.927,0.121
					C912.776,368.342,912.46,368.357,912.158,368.357z"/>
				<path fill="#323434" d="M917.615,368.116v-15.343l2.122-0.322v5.369c0.399-0.135,0.819-0.238,1.27-0.313
					c0.447-0.074,0.896-0.111,1.337-0.111c0.945,0,1.728,0.117,2.353,0.353c0.624,0.237,1.121,0.565,1.496,0.99
					c0.371,0.424,0.635,0.931,0.787,1.522c0.154,0.594,0.229,1.246,0.229,1.96v5.895h-2.125v-5.492c0-0.646-0.049-1.196-0.146-1.654
					c-0.101-0.458-0.265-0.828-0.494-1.11c-0.227-0.283-0.53-0.488-0.912-0.615c-0.385-0.128-0.854-0.192-1.416-0.192
					c-0.229,0-0.465,0.014-0.708,0.04c-0.245,0.027-0.477,0.058-0.696,0.092c-0.222,0.034-0.419,0.07-0.597,0.111
					c-0.173,0.039-0.299,0.074-0.377,0.101v8.721H917.615z"/>
				<path fill="#323434" d="M941.142,362.867c0,0.835-0.138,1.588-0.412,2.261c-0.272,0.673-0.657,1.253-1.151,1.735
					c-0.497,0.485-1.088,0.858-1.772,1.121c-0.683,0.263-1.43,0.395-2.239,0.395c-0.806,0-1.552-0.132-2.238-0.395
					c-0.683-0.263-1.273-0.636-1.768-1.121c-0.496-0.482-0.879-1.063-1.156-1.735c-0.272-0.673-0.41-1.426-0.41-2.261
					c0-0.82,0.138-1.57,0.41-2.25c0.277-0.68,0.66-1.263,1.156-1.747c0.494-0.484,1.085-0.858,1.768-1.121
					c0.687-0.262,1.433-0.394,2.238-0.394c0.81,0,1.557,0.132,2.239,0.394c0.685,0.263,1.275,0.637,1.772,1.121
					c0.494,0.484,0.879,1.067,1.151,1.747C941.004,361.297,941.142,362.047,941.142,362.867z M938.926,362.867
					c0-1.184-0.304-2.123-0.901-2.816c-0.603-0.691-1.422-1.039-2.458-1.039c-1.034,0-1.853,0.348-2.455,1.039
					c-0.601,0.693-0.899,1.633-0.899,2.816c0,1.185,0.299,2.122,0.899,2.816c0.603,0.691,1.421,1.039,2.455,1.039
					c1.036,0,1.855-0.348,2.458-1.039C938.622,364.989,938.926,364.052,938.926,362.867z"/>
				<path fill="#323434" d="M954.618,362.867c0,0.835-0.138,1.588-0.414,2.261c-0.27,0.673-0.657,1.253-1.148,1.735
					c-0.499,0.485-1.087,0.858-1.772,1.121s-1.431,0.395-2.238,0.395c-0.807,0-1.555-0.132-2.238-0.395
					c-0.687-0.263-1.276-0.636-1.771-1.121c-0.495-0.482-0.879-1.063-1.151-1.735c-0.277-0.673-0.411-1.426-0.411-2.261
					c0-0.82,0.134-1.57,0.411-2.25c0.272-0.68,0.656-1.263,1.151-1.747s1.085-0.858,1.771-1.121
					c0.684-0.262,1.432-0.394,2.238-0.394c0.808,0,1.553,0.132,2.238,0.394c0.686,0.263,1.273,0.637,1.772,1.121
					c0.491,0.484,0.879,1.067,1.148,1.747C954.48,361.297,954.618,362.047,954.618,362.867z M952.401,362.867
					c0-1.184-0.302-2.123-0.902-2.816c-0.601-0.691-1.42-1.039-2.454-1.039c-1.035,0-1.856,0.348-2.457,1.039
					c-0.601,0.693-0.901,1.633-0.901,2.816c0,1.185,0.301,2.122,0.901,2.816c0.601,0.691,1.422,1.039,2.457,1.039
					c1.034,0,1.854-0.348,2.454-1.039C952.1,364.989,952.401,364.052,952.401,362.867z"/>
				<path fill="#323434" d="M961.171,368.316c-1.308-0.025-2.236-0.274-2.786-0.746c-0.545-0.47-0.822-1.203-0.822-2.201v-12.596
					l2.125-0.322v12.617c0,0.309,0.032,0.564,0.092,0.766c0.061,0.203,0.162,0.363,0.296,0.484c0.139,0.121,0.32,0.213,0.55,0.273
					c0.229,0.061,0.511,0.111,0.847,0.15L961.171,368.316z"/>
				<path fill="#323434" d="M973.53,368.235c-0.321,0-0.667-0.007-1.041-0.019c-0.372-0.014-0.747-0.034-1.118-0.061
					c-0.375-0.027-0.742-0.061-1.107-0.102c-0.365-0.039-0.701-0.094-1.006-0.161v-13.565c0.305-0.066,0.641-0.121,1.006-0.16
					c0.365-0.041,0.732-0.076,1.107-0.104c0.371-0.024,0.743-0.045,1.108-0.059s0.708-0.02,1.026-0.02
					c0.914,0,1.771,0.06,2.57,0.182c0.799,0.119,1.493,0.325,2.078,0.614c0.586,0.289,1.047,0.669,1.383,1.141
					c0.335,0.472,0.504,1.05,0.504,1.737c0,0.767-0.207,1.395-0.619,1.887c-0.41,0.492-0.957,0.857-1.643,1.1
					c0.927,0.242,1.666,0.625,2.216,1.15c0.549,0.526,0.821,1.266,0.821,2.22c0,1.4-0.583,2.454-1.748,3.159
					C977.902,367.884,976.056,368.235,973.53,368.235z M971.452,360.021h2.33c0.545,0,1.063-0.033,1.552-0.102
					c0.488-0.067,0.909-0.188,1.268-0.363c0.357-0.175,0.641-0.403,0.847-0.687c0.204-0.282,0.306-0.639,0.306-1.069
					c0-0.404-0.105-0.744-0.319-1.02s-0.504-0.498-0.879-0.668c-0.372-0.166-0.81-0.291-1.313-0.373
					c-0.503-0.079-1.033-0.121-1.598-0.121s-1.004,0.008-1.323,0.021c-0.324,0.014-0.613,0.034-0.869,0.06V360.021z
					 M971.452,361.596v4.926c0.167,0.014,0.366,0.026,0.592,0.039c0.198,0.014,0.433,0.025,0.698,0.031
					c0.265,0.006,0.574,0.01,0.923,0.01c0.655,0,1.278-0.037,1.862-0.111c0.585-0.073,1.102-0.205,1.544-0.395
					c0.44-0.186,0.793-0.449,1.06-0.785c0.267-0.337,0.401-0.761,0.401-1.272c0-0.458-0.1-0.843-0.296-1.161
					c-0.197-0.315-0.483-0.568-0.858-0.757c-0.373-0.188-0.819-0.323-1.336-0.403c-0.521-0.081-1.096-0.121-1.736-0.121H971.452z"/>
				<path fill="#323434" d="M993.264,367.813c-0.486,0.109-1.132,0.223-1.931,0.344c-0.797,0.121-1.724,0.182-2.774,0.182
					c-0.915,0-1.681-0.117-2.309-0.354c-0.624-0.236-1.127-0.568-1.506-0.999c-0.38-0.432-0.656-0.938-0.821-1.524
					c-0.17-0.584-0.254-1.234-0.254-1.949v-5.893h2.126v5.49c0,1.279,0.229,2.193,0.684,2.745c0.457,0.553,1.226,0.827,2.309,0.827
					c0.229,0,0.465-0.006,0.707-0.019c0.244-0.014,0.473-0.03,0.687-0.052c0.213-0.02,0.406-0.039,0.581-0.061
					c0.176-0.02,0.302-0.044,0.377-0.07v-8.861h2.125V367.813z"/>
				<path fill="#323434" d="M999.683,366.763c0.866,0,1.509-0.1,1.929-0.302c0.418-0.202,0.629-0.526,0.629-0.971
					c0-0.457-0.205-0.82-0.617-1.089c-0.41-0.27-1.089-0.573-2.032-0.907c-0.46-0.162-0.896-0.328-1.313-0.496
					c-0.421-0.166-0.781-0.365-1.086-0.595c-0.306-0.229-0.547-0.505-0.731-0.828c-0.182-0.323-0.272-0.72-0.272-1.19
					c0-0.93,0.387-1.666,1.165-2.211c0.775-0.545,1.835-0.818,3.175-0.818c0.335,0,0.671,0.018,1.003,0.051
					c0.336,0.034,0.651,0.074,0.94,0.122c0.287,0.047,0.542,0.097,0.763,0.151c0.222,0.053,0.39,0.101,0.514,0.141l-0.389,1.615
					c-0.229-0.107-0.585-0.218-1.071-0.334c-0.488-0.113-1.074-0.17-1.76-0.17c-0.594,0-1.111,0.104-1.555,0.313
					c-0.439,0.209-0.663,0.535-0.663,0.979c0,0.23,0.05,0.432,0.15,0.605c0.1,0.176,0.251,0.334,0.456,0.475
					c0.208,0.142,0.46,0.272,0.767,0.394c0.302,0.12,0.67,0.249,1.093,0.384c0.564,0.189,1.067,0.373,1.512,0.555
					c0.441,0.183,0.818,0.395,1.13,0.636c0.311,0.241,0.552,0.534,0.717,0.878c0.17,0.344,0.252,0.764,0.252,1.262
					c0,0.971-0.407,1.703-1.22,2.2c-0.816,0.499-1.978,0.747-3.483,0.747c-1.053,0-1.875-0.077-2.468-0.232
					c-0.594-0.154-0.995-0.272-1.209-0.354l0.387-1.613c0.245,0.08,0.633,0.201,1.165,0.363
					C998.093,366.682,998.8,366.763,999.683,366.763z"/>
			</g>
		</g>
		<rect x="908.605" y="554.471" fill="#CCCCCC" width="76.331" height="15.946"/>
	</g>
</g>
</svg>
