<?xml version="1.0" encoding="utf-8"?>
<!-- Generator: Adobe Illustrator 16.0.0, SVG Export Plug-In . SVG Version: 6.00 Build 0)  -->
<!DOCTYPE svg PUBLIC "-//W3C//DTD SVG 1.1//EN" "http://www.w3.org/Graphics/SVG/1.1/DTD/svg11.dtd">
<svg version="1.1" id="Layer_1" xmlns="http://www.w3.org/2000/svg" xmlns:xlink="http://www.w3.org/1999/xlink" x="0px" y="0px"
	 width="1280px" height="600px" viewBox="0 0 1280 600" enable-background="new 0 0 1280 600" xml:space="preserve">
<g opacity="0.6">
	<line fill="none" x1="1273.092" y1="91.185" x2="1273.092" y2="660.768"/>
</g>
<line fill="none" x1="1256.41" y1="76.323" x2="1256.41" y2="644.65"/>
<path fill="#9DE0DC" d="M354.022,364.742c0-4.752,3.427-8.836,8.362-10.701c-3.632,19.222-6.352,38.495-8.362,57.798V364.742z"/>
<path opacity="0.8" fill="#9DE0DC" enable-background="new    " d="M354.022,425.951v-14.112c2.01-19.303,4.73-38.576,8.362-57.798
	c1.821-0.685,3.842-1.08,5.977-1.08c7.917,0,14.334,5.273,14.334,11.781v18.68h38.743v-40.257h16.723l36.016,10.441v61.274h19.553
	l0.267-108.13l63.029-19.266h26.514l-0.264,71.551h30.917v47.599h8.629V283.088h52.484v44.402h23.638v86.444h14.596v-7.306h7.759
	v-34.226h21.519v34.226h5.972v7.306h10.335v40.604h18.528v-67.188H850v45.16h6.445V472.1h5.994V346.094l32.25-5.851l14.75,5.575
	v52.965h8.295v-14.775h9.212h4.608v23.698h18.578v51.291h10.452V330.581l15.978-7.622v-43.517l7.368-2.603v-5.936l27.031-9.831
	l10.131,3.533v52.778l5.227,0.188v45.751h12.284v-17.471l13.52-5.574l9.215,3.346v65.508h25.803v-12.763h7.987v-27.877l20.894-5.69
	l43.313,19.259v102.026h8.289v-47.573h17.2v-46.091l27.035-2.229l21.505,3.715v78.137h8.609v-16.645l13.174-4.369
	c-1.347,30.794-1.163,61.636-0.213,92.468l-79.59-11.831l3.874-6.554H759.12v0.213H348.586c0.232-32.5,1.257-64.979,4.084-97.374
	L354.022,425.951L354.022,425.951z"/>
<path fill="#61C1D1" d="M348.968,601.637c-0.525-50.513-1.178-101.101,1.909-151.521h4.818v-30.147h5.881v27.943l17.23,7.538
	v-70.765h11.201v-21.353l19.617-10.89v-14.652h7.279v15.496l11.205,10.464v21.357h11.771v69.086h31.375v-69.086h68.354v21.352
	h29.132v22.609h26.898v-73.696h113.45v71.187h37.818v41.457h10.929v-40.831h10.925V412.74h6.729v-40.736l18.435-11.668v-18.155
	h23.02v18.637h6.728l26.335-16.743V317.69h5.608v25.124l22.96,19.68v22.614h10.794v-29.053h5.672V339.88h16.175v11.779h7.146v5.811
	h15.128v-13.347h-10.714v-3.927h10.504v-12.41h11.559V319h5.037v8.635h11.068v12.668h10.639v3.353h-10.639v14.235h22.408v26.795
	h11.738l0.221-16.541l9.895-11.141h66.117v28.516h31.938v57.37h27.732v-11.62h5.877v14.449l10.936,5.646v37.847h5.881v-46.951
	h10.288v-11.932h-5.036v-4.397h5.881v-3.923h4.623v-8.639h5.672v8.791h6.094v3.771h5.037v4.082h-5.037v12.876h12.814v56.771h19.757
	v-35.41v-26.176l11.622-7.61h4.502v-18.137h6.164v18.21h4.734l5.326,7.537h5.604v-20.298h5.334
	c0.453,63.548-2.746,122.461,0.453,183.626"/>
<path fill="#559642" d="M388.635,452.085c0,0.382,0,0.795,0,1.205C387.993,452.887,387.567,452.492,388.635,452.085z"/>
<path fill="#559642" d="M388.635,455.1c0-0.462,0-1.127,0-1.81C389.594,453.895,391.042,454.493,388.635,455.1z"/>
<rect x="855.702" y="366.336" fill="#66DDD7" width="12.427" height="16.072"/>
<rect x="898.456" y="360.107" fill="#66DDD7" width="12.421" height="16.067"/>
<rect x="898.456" y="382.646" fill="#66DDD7" width="12.421" height="16.068"/>
<g>
	<rect x="947.66" y="331.434" fill="#66DDD7" width="7.44" height="9.627"/>
	<rect x="937.446" y="331.434" fill="#66DDD7" width="7.438" height="9.627"/>
	<rect x="947.66" y="342.148" fill="#66DDD7" width="7.44" height="9.625"/>
	<rect x="937.446" y="342.148" fill="#66DDD7" width="7.438" height="9.625"/>
</g>
<rect x="837.677" y="366.336" fill="#66DDD7" width="12.421" height="16.072"/>
<rect x="855.702" y="386.507" fill="#66DDD7" width="12.427" height="16.069"/>
<rect x="837.677" y="386.507" fill="#66DDD7" width="12.421" height="16.069"/>
<rect x="855.702" y="406.672" fill="#66DDD7" width="12.427" height="16.07"/>
<rect x="837.677" y="406.672" fill="#66DDD7" width="12.421" height="16.07"/>
<rect x="855.702" y="426.842" fill="#66DDD7" width="12.427" height="16.068"/>
<rect x="837.677" y="426.842" fill="#66DDD7" width="12.421" height="16.068"/>
<rect x="855.702" y="447.01" fill="#66DDD7" width="12.427" height="16.069"/>
<rect x="837.677" y="447.01" fill="#66DDD7" width="12.421" height="16.069"/>
<rect x="1071.469" y="385.52" fill="#37A4AF" width="31.791" height="57.024"/>
<g>
	<rect x="1091.805" y="392.188" fill="#66DDD7" width="4.186" height="5.41"/>
	<rect x="1091.805" y="400.725" fill="#66DDD7" width="4.186" height="5.41"/>
	<rect x="1091.805" y="409.265" fill="#66DDD7" width="4.186" height="5.409"/>
	<rect x="1091.805" y="417.799" fill="#66DDD7" width="4.186" height="5.411"/>
	<rect x="1091.805" y="426.337" fill="#66DDD7" width="4.186" height="5.408"/>
	<rect x="1091.805" y="434.875" fill="#66DDD7" width="4.186" height="5.406"/>
	<rect x="1083.499" y="392.188" fill="#66DDD7" width="4.175" height="5.41"/>
	<rect x="1083.499" y="400.725" fill="#66DDD7" width="4.175" height="5.41"/>
	<rect x="1083.499" y="409.265" fill="#66DDD7" width="4.175" height="5.409"/>
	<rect x="1083.499" y="417.799" fill="#66DDD7" width="4.175" height="5.411"/>
	<rect x="1083.499" y="426.337" fill="#66DDD7" width="4.175" height="5.408"/>
	<rect x="1083.499" y="434.875" fill="#66DDD7" width="4.175" height="5.406"/>
	<rect x="1075.18" y="392.188" fill="#66DDD7" width="4.174" height="5.41"/>
	<rect x="1075.18" y="400.725" fill="#66DDD7" width="4.174" height="5.41"/>
	<rect x="1075.18" y="409.265" fill="#66DDD7" width="4.174" height="5.409"/>
	<rect x="1075.18" y="417.799" fill="#66DDD7" width="4.174" height="5.411"/>
	<rect x="1075.18" y="426.337" fill="#66DDD7" width="4.174" height="5.408"/>
	<rect x="1075.18" y="434.875" fill="#66DDD7" width="4.174" height="5.406"/>
</g>
<polygon fill="#7FD4DD" points="793.925,360.276 793.925,412.734 775.49,412.684 775.49,371.949 "/>
<g>
	<polygon fill="#47C9C0" points="784.988,383.578 789.314,382.487 789.314,368.847 784.988,371.209 	"/>
	<polygon fill="#47C9C0" points="779.084,385.066 783.031,383.972 783.031,372.693 779.084,374.848 	"/>
	<polygon fill="#47C9C0" points="784.988,397.305 789.314,396.211 789.314,384.059 784.988,385.182 	"/>
	<polygon fill="#47C9C0" points="779.084,398.788 783.031,397.96 783.031,385.592 779.084,386.416 	"/>
	<polygon fill="#47C9C0" points="784.988,412.401 789.314,412.401 789.314,397.676 784.988,398.795 	"/>
	<polygon fill="#47C9C0" points="779.084,412.401 783.031,412.401 783.031,399.203 779.084,400.029 	"/>
</g>
<g>
	<rect x="607.227" y="367.344" fill="#66DDD7" width="89.508" height="4.343"/>
	<rect x="607.227" y="375.707" fill="#66DDD7" width="89.508" height="4.344"/>
	<rect x="607.227" y="384.073" fill="#66DDD7" width="89.508" height="4.343"/>
	<rect x="607.227" y="392.436" fill="#66DDD7" width="89.508" height="4.342"/>
	<rect x="607.227" y="400.801" fill="#66DDD7" width="89.508" height="4.341"/>
	<rect x="607.227" y="409.165" fill="#66DDD7" width="89.508" height="4.344"/>
	<rect x="607.227" y="417.529" fill="#66DDD7" width="89.508" height="4.341"/>
	<rect x="607.227" y="425.894" fill="#66DDD7" width="89.508" height="4.347"/>
</g>
<g>
	<rect x="1105.574" y="450.073" fill="#66DDD7" width="18.885" height="3.686"/>
	<rect x="1082.36" y="450.073" fill="#66DDD7" width="18.893" height="3.686"/>
	<rect x="1105.574" y="457.864" fill="#66DDD7" width="18.885" height="3.684"/>
	<rect x="1082.36" y="457.864" fill="#66DDD7" width="18.893" height="3.684"/>
	<rect x="1105.574" y="465.649" fill="#66DDD7" width="18.885" height="3.687"/>
	<rect x="1082.36" y="465.649" fill="#66DDD7" width="18.893" height="3.687"/>
	<rect x="1105.574" y="473.438" fill="#66DDD7" width="18.885" height="3.683"/>
	<rect x="1082.36" y="473.438" fill="#66DDD7" width="18.893" height="3.683"/>
</g>
<g>
	<rect x="657.771" y="448.026" fill="#66DDD7" width="38.962" height="5.372"/>
	<rect x="609.901" y="448.026" fill="#66DDD7" width="38.959" height="5.372"/>
	<rect x="657.771" y="459.395" fill="#66DDD7" width="38.962" height="5.372"/>
	<rect x="609.901" y="459.395" fill="#66DDD7" width="38.959" height="5.372"/>
	<rect x="657.771" y="470.756" fill="#66DDD7" width="38.962" height="5.38"/>
	<rect x="609.901" y="470.756" fill="#66DDD7" width="38.959" height="5.38"/>
	<rect x="657.771" y="482.126" fill="#66DDD7" width="38.962" height="5.378"/>
	<rect x="609.901" y="482.126" fill="#66DDD7" width="38.959" height="5.378"/>
</g>
<polygon fill="#37A4AF" points="1133.811,431.27 1133.811,489.413 1147.805,489.212 1147.805,451.365 1136.869,445.719 
	1136.869,431.27 "/>
<polygon fill="#7FD4DD" points="1005.205,357.004 1005.205,384.792 995.091,384.686 995.313,368.145 "/>
<rect x="1005.205" y="357.63" fill="#49B2B7" width="66.117" height="138.424"/>
<g>
	<rect x="1051.736" y="361.766" fill="#66DDD7" width="9.31" height="12.757"/>
	<rect x="1051.736" y="381.896" fill="#66DDD7" width="9.31" height="12.754"/>
	<rect x="1051.736" y="402.029" fill="#66DDD7" width="9.31" height="12.751"/>
	<rect x="1051.736" y="422.159" fill="#66DDD7" width="9.31" height="12.749"/>
	<rect x="1051.736" y="442.29" fill="#66DDD7" width="9.31" height="12.752"/>
	<rect x="1051.736" y="462.42" fill="#66DDD7" width="9.31" height="12.754"/>
	<rect x="1033.212" y="361.766" fill="#66DDD7" width="9.313" height="12.757"/>
	<rect x="1033.212" y="381.896" fill="#66DDD7" width="9.313" height="12.754"/>
	<rect x="1033.212" y="402.029" fill="#66DDD7" width="9.313" height="12.751"/>
	<rect x="1033.212" y="422.159" fill="#66DDD7" width="9.313" height="12.749"/>
	<rect x="1033.212" y="442.29" fill="#66DDD7" width="9.313" height="12.752"/>
	<rect x="1033.212" y="462.42" fill="#66DDD7" width="9.313" height="12.754"/>
	<rect x="1014.698" y="482.677" fill="#66DDD7" width="46.348" height="12.755"/>
	<rect x="1014.698" y="361.766" fill="#66DDD7" width="9.306" height="12.757"/>
	<rect x="1014.698" y="381.896" fill="#66DDD7" width="9.306" height="12.754"/>
	<rect x="1014.698" y="402.029" fill="#66DDD7" width="9.306" height="12.751"/>
	<rect x="1014.698" y="422.159" fill="#66DDD7" width="9.306" height="12.749"/>
	<rect x="1014.698" y="442.29" fill="#66DDD7" width="9.306" height="12.752"/>
	<rect x="1014.698" y="462.42" fill="#66DDD7" width="9.306" height="12.754"/>
</g>
<polygon fill="#7FD4DD" points="595.64,355.373 583.516,364.703 583.516,429.069 595.64,429.069 "/>
<rect x="517.5" y="394.838" fill="#7FD4DD" width="10.242" height="18.855"/>
<rect x="499.24" y="394.838" fill="#7FD4DD" width="10.242" height="18.855"/>
<rect x="480.092" y="394.838" fill="#7FD4DD" width="10.243" height="18.855"/>
<rect x="499.24" y="419.642" fill="#7FD4DD" width="10.242" height="18.854"/>
<rect x="480.092" y="419.642" fill="#7FD4DD" width="10.243" height="18.854"/>
<rect x="480.092" y="443.858" fill="#7FD4DD" width="10.243" height="18.859"/>
<rect x="522.62" y="467.393" fill="#7FD4DD" width="10.241" height="18.858"/>
<rect x="451.542" y="457.501" fill="#7FD4DD" width="18.524" height="8.229"/>
<rect x="423.438" y="457.501" fill="#7FD4DD" width="18.525" height="8.229"/>
<rect x="393.788" y="457.501" fill="#7FD4DD" width="18.524" height="8.229"/>
<rect x="451.542" y="472.021" fill="#7FD4DD" width="18.524" height="8.23"/>
<rect x="423.438" y="472.021" fill="#7FD4DD" width="18.525" height="8.23"/>
<rect x="393.788" y="472.021" fill="#7FD4DD" width="18.524" height="8.23"/>
<rect x="806.502" y="348.969" fill="#7FD4DD" width="7.347" height="13.044"/>
<rect x="796.705" y="348.969" fill="#7FD4DD" width="7.351" height="13.044"/>
<rect x="806.502" y="365.353" fill="#7FD4DD" width="7.347" height="13.04"/>
<rect x="796.705" y="365.353" fill="#7FD4DD" width="7.351" height="13.04"/>
<rect x="796.705" y="381.732" fill="#7FD4DD" width="7.351" height="13.045"/>
<rect x="806.502" y="398.113" fill="#7FD4DD" width="7.347" height="13.042"/>
<rect x="806.502" y="414.497" fill="#7FD4DD" width="7.347" height="13.042"/>
<rect x="806.502" y="430.88" fill="#7FD4DD" width="7.347" height="13.041"/>
<rect x="796.705" y="430.88" fill="#7FD4DD" width="7.351" height="13.041"/>
<rect x="771.811" y="414.497" fill="#7FD4DD" width="7.354" height="13.042"/>
<rect x="762.019" y="453.184" fill="#7FD4DD" width="7.354" height="13.041"/>
<rect x="771.811" y="434.438" fill="#7FD4DD" width="7.354" height="13.045"/>
<rect x="796.705" y="447.264" fill="#7FD4DD" width="7.351" height="13.039"/>
<rect x="806.502" y="463.646" fill="#7FD4DD" width="7.347" height="13.039"/>
<rect x="796.705" y="463.646" fill="#7FD4DD" width="7.351" height="13.039"/>
<rect x="427.993" y="390.773" fill="#7FD4DD" width="3.562" height="63.421"/>
<rect x="417.5" y="390.773" fill="#7FD4DD" width="3.563" height="63.421"/>
<rect x="407.008" y="390.773" fill="#7FD4DD" width="3.563" height="63.421"/>
<rect x="421.063" y="364.703" fill="#7FD4DD" width="2.373" height="20.089"/>
<rect x="415.124" y="364.703" fill="#7FD4DD" width="2.376" height="20.089"/>
<rect x="409.188" y="364.703" fill="#7FD4DD" width="2.373" height="20.089"/>
<rect x="403.251" y="364.703" fill="#7FD4DD" width="2.373" height="20.089"/>
<rect x="397.316" y="364.703" fill="#7FD4DD" width="2.371" height="20.089"/>
<rect x="396.521" y="390.773" fill="#7FD4DD" width="3.562" height="63.421"/>
<rect x="386.027" y="390.773" fill="#7FD4DD" width="3.564" height="63.421"/>
<rect x="965.924" y="367.458" fill="#66DDD7" width="9.358" height="101.157"/>
<rect x="950.428" y="367.458" fill="#66DDD7" width="9.346" height="101.157"/>
<rect x="934.917" y="367.458" fill="#66DDD7" width="9.354" height="101.157"/>
<rect x="919.417" y="367.458" fill="#66DDD7" width="9.356" height="101.157"/>
<rect x="878.207" y="398.113" fill="#37A4AF" width="11.161" height="96.826"/>
<rect x="539.635" y="406.46" fill="#37A4AF" width="28.978" height="88.972"/>
<rect x="569.03" y="429.069" fill="#51B9C4" width="26.609" height="66.361"/>
<g>
	<rect x="555.519" y="418.984" fill="#7FD4DD" width="10.242" height="10.491"/>
	<rect x="542.491" y="418.984" fill="#7FD4DD" width="10.241" height="10.491"/>
	<rect x="555.519" y="434.763" fill="#7FD4DD" width="10.242" height="10.498"/>
	<rect x="542.491" y="434.763" fill="#7FD4DD" width="10.241" height="10.498"/>
	<rect x="555.519" y="450.549" fill="#7FD4DD" width="10.242" height="10.493"/>
	<rect x="542.491" y="450.549" fill="#7FD4DD" width="10.241" height="10.493"/>
	<rect x="555.519" y="466.331" fill="#7FD4DD" width="10.242" height="10.494"/>
	<rect x="542.491" y="466.331" fill="#7FD4DD" width="10.241" height="10.494"/>
</g>
<rect x="710.104" y="426.56" fill="#49B2B7" width="37.481" height="69.317"/>
<g>
	<rect x="728.844" y="430.644" fill="#7FD4DD" width="10.247" height="10.491"/>
	<rect x="715.827" y="430.644" fill="#7FD4DD" width="10.237" height="10.491"/>
	<rect x="715.827" y="446.429" fill="#7FD4DD" width="10.237" height="10.491"/>
	<rect x="714.324" y="461.083" fill="#7FD4DD" width="10.244" height="10.497"/>
</g>
<polygon fill="#7FD4DD" points="450.19,454.194 471.255,454.194 471.255,385.108 450.19,396.965 "/>
<path fill="#37A4AF" d="M355.695,450.115v-30.147h5.881v27.943l17.23,7.538v39.981h-28.749l-0.149-27.09
	c0.271-6.079,0.598-12.153,0.968-18.227L355.695,450.115L355.695,450.115z"/>
<path fill="#37A4AF" d="M350.877,450.115c-0.37,6.072-0.697,12.146-0.968,18.227l-0.095-18.227H350.877z"/>
<polygon fill="#8CE4EA" points="371.235,465.007 363.474,465.007 363.474,456.188 371.235,459.619 "/>
<rect x="353.119" y="456.188" fill="#8CE4EA" width="7.765" height="8.818"/>
<rect x="363.474" y="467.991" fill="#8CE4EA" width="7.762" height="8.814"/>
<rect x="353.119" y="467.991" fill="#8CE4EA" width="7.765" height="8.814"/>
<rect x="363.474" y="479.566" fill="#8CE4EA" width="7.762" height="8.815"/>
<rect x="353.119" y="479.566" fill="#8CE4EA" width="7.765" height="8.815"/>
<path fill="none" stroke="#61C1D1" stroke-miterlimit="10" d="M260.51,124.876c89.17,0,161.714,72.544,161.714,161.711
	c0,89.171-72.543,161.711-161.714,161.711c-89.169,0-161.713-72.54-161.713-161.711C98.796,197.42,171.341,124.876,260.51,124.876"
	/>
<path fill="none" stroke="#61C1D1" stroke-miterlimit="10" d="M260.51,130.68c-85.965,0-155.911,69.94-155.911,155.907
	c0,85.968,69.946,155.909,155.911,155.909c85.97,0,155.906-69.941,155.906-155.909C416.416,200.62,346.479,130.68,260.51,130.68"/>
<g>
	<path fill="none" stroke="#61C1D1" stroke-miterlimit="10" d="M260.51,324.686c-21.008,0-38.099-17.094-38.099-38.099
		c0-21.008,17.091-38.097,38.099-38.097c21.009,0,38.09,17.089,38.09,38.097C298.6,307.592,281.519,324.686,260.51,324.686z
		 M260.51,253.908c-18.02,0-32.677,14.658-32.677,32.679c0,18.022,14.657,32.683,32.677,32.683c18.021,0,32.681-14.66,32.681-32.683
		C293.191,268.566,278.531,253.908,260.51,253.908z"/>
</g>
<line fill="none" stroke="#61C1D1" stroke-miterlimit="10" x1="260.51" y1="286.587" x2="260.51" y2="445.4"/>
<line fill="none" stroke="#61C1D1" stroke-miterlimit="10" x1="260.51" y1="286.587" x2="329.413" y2="429.675"/>
<line fill="none" stroke="#61C1D1" stroke-miterlimit="10" x1="260.51" y1="286.587" x2="384.676" y2="385.611"/>
<line fill="none" stroke="#61C1D1" stroke-miterlimit="10" x1="260.51" y1="286.587" x2="415.337" y2="321.927"/>
<line fill="none" stroke="#61C1D1" stroke-miterlimit="10" x1="260.51" y1="286.587" x2="415.337" y2="251.251"/>
<line fill="none" stroke="#61C1D1" stroke-miterlimit="10" x1="260.51" y1="286.587" x2="384.676" y2="187.57"/>
<line fill="none" stroke="#61C1D1" stroke-miterlimit="10" x1="260.51" y1="286.587" x2="329.413" y2="143.503"/>
<line fill="none" stroke="#61C1D1" stroke-miterlimit="10" x1="260.51" y1="286.587" x2="260.51" y2="127.774"/>
<line fill="none" stroke="#61C1D1" stroke-miterlimit="10" x1="260.51" y1="286.587" x2="191.6" y2="143.503"/>
<line fill="none" stroke="#61C1D1" stroke-miterlimit="10" x1="260.51" y1="286.587" x2="136.344" y2="187.57"/>
<line fill="none" stroke="#61C1D1" stroke-miterlimit="10" x1="260.51" y1="286.587" x2="105.68" y2="251.251"/>
<line fill="none" stroke="#61C1D1" stroke-miterlimit="10" x1="260.51" y1="286.587" x2="105.68" y2="321.927"/>
<line fill="none" stroke="#61C1D1" stroke-miterlimit="10" x1="260.51" y1="286.587" x2="136.344" y2="385.611"/>
<line fill="none" stroke="#61C1D1" stroke-miterlimit="10" x1="260.51" y1="286.587" x2="191.6" y2="429.675"/>
<path fill="none" stroke="#61C1D1" stroke-miterlimit="10" d="M260.51,147.092c76.916,0,139.492,62.582,139.492,139.495
	c0,76.918-62.576,139.502-139.492,139.502c-76.922,0-139.501-62.584-139.501-139.502
	C121.008,209.673,183.587,147.092,260.51,147.092"/>
<path fill="none" stroke="#61C1D1" stroke-miterlimit="10" d="M260.51,151.02c-74.751,0-135.57,60.815-135.57,135.567
	c0,74.753,60.819,135.568,135.57,135.568c74.749,0,135.57-60.815,135.57-135.568S335.258,151.02,260.51,151.02"/>
<path fill="none" stroke="#61C1D1" stroke-miterlimit="10" d="M260.51,258.528c-15.514,0-28.063,12.545-28.063,28.059
	c0,15.513,12.55,28.063,28.063,28.063c15.509,0,28.059-12.553,28.059-28.063C288.568,271.073,276.019,258.528,260.51,258.528z
	 M260.51,302.941c-9.04,0-16.354-7.313-16.354-16.354c0-9.035,7.315-16.35,16.354-16.35c9.035,0,16.354,7.315,16.354,16.35
	C276.864,295.63,269.544,302.941,260.51,302.941z"/>
<path fill="#61C1D1" d="M136.344,180.828c0,4.601-3.729,8.336-8.33,8.336c-4.599,0-8.335-3.735-8.335-8.336
	c0-4.6,3.736-8.331,8.335-8.331C132.616,172.497,136.344,176.228,136.344,180.828z"/>
<path fill="#61C1D1" d="M104.479,248.49c0,4.603-3.721,8.333-8.327,8.333c-4.602,0-8.337-3.731-8.337-8.333
	c0-4.602,3.735-8.332,8.337-8.332C100.758,240.159,104.479,243.888,104.479,248.49z"/>
<path fill="#61C1D1" d="M401.336,181.591c0,4.599-3.728,8.336-8.327,8.336c-4.608,0-8.333-3.737-8.333-8.336
	c0-4.601,3.725-8.336,8.333-8.336C397.608,173.254,401.336,176.99,401.336,181.591z"/>
<path fill="#61C1D1" d="M343.33,132.667c0,4.599-3.728,8.336-8.327,8.336c-4.608,0-8.333-3.737-8.333-8.336
	c0-4.601,3.725-8.336,8.333-8.336C339.603,124.33,343.33,128.066,343.33,132.667z"/>
<path fill="#61C1D1" d="M268.664,116c0,4.599-3.728,8.336-8.327,8.336c-4.608,0-8.333-3.737-8.333-8.336
	c0-4.601,3.725-8.336,8.333-8.336C264.936,107.664,268.664,111.4,268.664,116z"/>
<path fill="#61C1D1" d="M194.663,132.334c0,4.599-3.728,8.336-8.327,8.336c-4.608,0-8.333-3.737-8.333-8.336
	c0-4.601,3.725-8.336,8.333-8.336C190.936,123.998,194.663,127.733,194.663,132.334z"/>
<path fill="#61C1D1" d="M433.265,249.964c0,4.603-3.729,8.335-8.329,8.335c-4.608,0-8.337-3.732-8.337-8.335
	c0-4.599,3.729-8.336,8.337-8.336C429.536,241.627,433.265,245.365,433.265,249.964z"/>
<path fill="#61C1D1" d="M433.265,323.873c0,4.604-3.729,8.342-8.329,8.342c-4.608,0-8.337-3.738-8.337-8.342
	c0-4.604,3.729-8.328,8.337-8.328C429.536,315.545,433.265,319.27,433.265,323.873z"/>
<path fill="#61C1D1" d="M401.336,391.478c0,4.602-3.728,8.338-8.327,8.338c-4.608,0-8.333-3.736-8.333-8.338
	c0-4.599,3.725-8.33,8.333-8.33C397.608,383.146,401.336,386.879,401.336,391.478z"/>
<path fill="#61C1D1" d="M341.746,438.006c0,4.603-3.728,8.338-8.333,8.338c-4.602,0-8.335-3.735-8.335-8.338
	c0-4.601,3.733-8.331,8.335-8.331C338.019,429.675,341.746,433.405,341.746,438.006z"/>
<path fill="#61C1D1" d="M268.837,454.669c0,4.605-3.727,8.331-8.333,8.331c-4.604,0-8.327-3.726-8.327-8.331
	c0-4.604,3.723-8.331,8.327-8.331C265.11,446.338,268.837,450.064,268.837,454.669z"/>
<path fill="#61C1D1" d="M194.723,438.006c0,4.603-3.732,8.338-8.337,8.338c-4.603,0-8.333-3.735-8.333-8.338
	c0-4.601,3.73-8.331,8.333-8.331C190.99,429.675,194.723,433.405,194.723,438.006z"/>
<path fill="#61C1D1" d="M137.678,390.911c0,4.601-3.733,8.331-8.333,8.331c-4.601,0-8.337-3.73-8.337-8.331
	c0-4.602,3.736-8.337,8.337-8.337C133.945,382.574,137.678,386.311,137.678,390.911z"/>
<path fill="#61C1D1" d="M103.246,324.686c0,4.601-3.735,8.33-8.337,8.33c-4.599,0-8.333-3.729-8.333-8.33
	c0-4.604,3.734-8.337,8.333-8.337C99.51,316.349,103.246,320.08,103.246,324.686z"/>
<polyline fill="#548722" points="-0.964,468.877 1256.41,468.877 1256.41,644.366 "/>
<polyline fill="#808080" points="-0.964,506.478 1256.41,506.478 1256.41,644.366 "/>
<g>
	<g>
		<g id="XMLID_69_">
			<g id="XMLID_2_">
				<path id="XMLID_77_" fill="#282828" d="M1153.627,485.578c0,1.109-4.711,2.005-10.509,2.005c-5.807,0-10.518-0.895-10.518-2.005
					s4.712-2.007,10.518-2.007C1148.916,483.571,1153.627,484.468,1153.627,485.578z"/>
				<g id="XMLID_74_">
					<path id="XMLID_76_" fill="#8D6E63" d="M1144.258,467.453c-0.372,0.049-1.993,1.011-3.635,2.033l-1.451-22.54h-3.847
						l-0.271,16.89c-2.438-1.472-6.107-3.643-6.62-3.705c-0.794-0.09-0.536,0.616,0.087,1.042c0.434,0.334,4.221,3.619,6.477,5.887
						l-0.299,18.969h6.986l-0.85-13.365c1.641-1.694,3.358-3.326,3.687-3.563C1145.133,468.65,1145.043,467.368,1144.258,467.453z"
						/>
					<path id="XMLID_75_" opacity="0.4" fill="#282828" enable-background="new    " d="M1144.521,469.118
						c-0.341,0.224-2.082,1.85-3.7,3.535l0.839,13.386h-3.855v-39.093h1.392l1.403,22.51c1.679-1.004,3.307-1.954,3.633-2.016
						C1145.025,467.388,1145.133,468.671,1144.521,469.118z"/>
				</g>
				<g id="XMLID_71_">
					<g id="XMLID_72_">
						<path id="XMLID_73_" fill="#548722" d="M1173.113,419.851c0,19.505-15.813,35.316-35.31,35.316
							c-19.508,0-35.313-15.813-35.313-35.316c0-19.503,15.806-35.316,35.313-35.316
							C1157.3,384.533,1173.113,400.347,1173.113,419.851z"/>
					</g>
					<path opacity="0.19" fill="#FFFFFF" enable-background="new    " d="M1137.088,384.533c-0.453,0-0.879,0.049-1.313,0.063
						c15.376,2.517,27.109,15.826,27.109,31.915c0,17.873-14.48,32.374-32.36,32.374c-8.873,0-16.917-3.583-22.774-9.375
						c6.34,9.438,17.108,15.657,29.34,15.657c19.495,0,35.308-15.813,35.308-35.316S1156.583,384.533,1137.088,384.533z"/>
				</g>
			</g>
		</g>
	</g>
	<g>
		<g id="XMLID_5_">
			<g id="XMLID_6_">
				<path id="XMLID_13_" fill="#282828" d="M1110.661,482.178c0,1.742-7.386,3.149-16.479,3.149c-9.1,0-16.483-1.407-16.483-3.149
					c0-1.738,7.385-3.144,16.483-3.144C1103.275,479.034,1110.661,480.438,1110.661,482.178z"/>
				<g id="XMLID_10_">
					<path id="XMLID_12_" fill="#8D6E63" d="M1095.979,453.769c-0.582,0.066-3.136,1.577-5.707,3.183L1088,421.61h-6.029
						l-0.42,26.476c-3.833-2.302-9.58-5.704-10.396-5.808c-1.233-0.139-0.825,0.972,0.145,1.643
						c0.683,0.517,6.622,5.665,10.168,9.231l-0.479,29.729h10.956l-1.348-20.952c2.572-2.654,5.278-5.219,5.789-5.59
						C1097.341,455.645,1097.209,453.629,1095.979,453.769z"/>
					<path id="XMLID_11_" opacity="0.4" fill="#282828" enable-background="new    " d="M1096.387,456.376
						c-0.537,0.352-3.265,2.898-5.813,5.535l1.326,20.995h-6.049V421.61h2.182l2.204,35.288c2.629-1.571,5.182-3.063,5.694-3.162
						C1097.171,453.657,1097.341,455.671,1096.387,456.376z"/>
				</g>
				<g id="XMLID_7_">
					<g id="XMLID_8_">
						<path id="XMLID_9_" fill="#4A7529" d="M1141.206,379.125c0,30.581-24.786,55.37-55.354,55.37
							c-30.582,0-55.368-24.789-55.368-55.37c0-30.578,24.786-55.371,55.368-55.371
							C1116.42,323.754,1141.206,348.547,1141.206,379.125z"/>
					</g>
					<path opacity="0.19" fill="#FFFFFF" enable-background="new    " d="M1084.855,323.754c-0.709,0-1.375,0.081-2.062,0.098
						c24.112,3.941,42.521,24.816,42.521,50.041c0,28.024-22.717,50.756-50.748,50.756c-13.911,0-26.525-5.614-35.707-14.695
						c9.943,14.795,26.819,24.543,45.996,24.543c30.578,0,55.363-24.789,55.363-55.37
						C1140.22,348.547,1115.436,323.754,1084.855,323.754z"/>
				</g>
			</g>
		</g>
	</g>
	<g>
		<g id="XMLID_14_">
			<g id="XMLID_15_">
				<path id="XMLID_22_" fill="#282828" d="M1060.386,485.183c0,0.792-3.369,1.434-7.52,1.434c-4.153,0-7.523-0.642-7.523-1.434
					c0-0.797,3.37-1.437,7.523-1.437C1057.017,483.746,1060.386,484.386,1060.386,485.183z"/>
				<g id="XMLID_19_">
					<path id="XMLID_21_" fill="#8D6E63" d="M1053.682,472.217c-0.265,0.029-1.428,0.719-2.598,1.451l-1.045-16.123h-2.746
						l-0.197,12.081c-1.747-1.053-4.37-2.604-4.738-2.65c-0.561-0.063-0.377,0.441,0.06,0.747c0.321,0.237,3.025,2.587,4.65,4.215
						l-0.229,13.563h5.001l-0.612-9.559c1.173-1.214,2.409-2.386,2.645-2.55C1054.307,473.074,1054.242,472.155,1053.682,472.217z"
						/>
					<path id="XMLID_20_" opacity="0.4" fill="#282828" enable-background="new    " d="M1053.871,473.405
						c-0.246,0.166-1.492,1.322-2.647,2.525l0.597,9.583h-2.76v-27.97h0.997l1.004,16.104c1.199-0.721,2.37-1.403,2.604-1.447
						C1054.23,472.167,1054.307,473.086,1053.871,473.405z"/>
				</g>
				<g id="XMLID_16_">
					<g id="XMLID_17_">
						<path id="XMLID_18_" fill="#74A329" d="M1074.324,438.158c0,13.955-11.31,25.266-25.265,25.266
							c-13.949,0-25.258-11.311-25.258-25.266c0-13.951,11.309-25.264,25.258-25.264
							C1063.016,412.896,1074.324,424.207,1074.324,438.158z"/>
					</g>
					<path opacity="0.19" fill="#FFFFFF" enable-background="new    " d="M1048.489,412.896c-0.331,0-0.631,0.035-0.945,0.045
						c11.007,1.797,19.399,11.318,19.399,22.83c0,12.787-10.364,23.157-23.153,23.157c-6.347,0-12.099-2.558-16.29-6.703
						c4.535,6.752,12.239,11.198,20.989,11.198c13.948,0,25.257-11.311,25.257-25.266
						C1073.746,424.207,1062.438,412.896,1048.489,412.896z"/>
				</g>
			</g>
		</g>
	</g>
</g>
<g>
	<g id="XMLID_56_">
		<g id="XMLID_58_">
			<path id="XMLID_79_" fill="#282828" d="M652.105,481.096c0,1.69-7.17,3.052-15.988,3.052c-8.831,0-15.995-1.36-15.995-3.052
				c0-1.688,7.165-3.054,15.995-3.054C644.938,478.042,652.105,479.407,652.105,481.096z"/>
			<g id="XMLID_67_">
				<path id="XMLID_78_" fill="#8D6E63" d="M637.848,453.528c-0.554,0.063-3.038,1.526-5.521,3.089l-2.211-34.29h-5.854
					l-0.406,25.69c-3.714-2.234-9.295-5.536-10.082-5.637c-1.201-0.135-0.807,0.944,0.138,1.591c0.668,0.505,6.428,5.5,9.866,8.957
					l-0.463,28.847h10.628l-1.308-20.325c2.5-2.576,5.117-5.069,5.614-5.427C639.176,455.348,639.048,453.398,637.848,453.528z"/>
				<path id="XMLID_68_" opacity="0.4" fill="#282828" enable-background="new    " d="M638.245,456.063
					c-0.514,0.339-3.165,2.813-5.631,5.369l1.287,20.37h-5.873v-59.475h2.122l2.13,34.241c2.553-1.522,5.024-2.978,5.53-3.066
					C639.014,453.417,639.176,455.377,638.245,456.063z"/>
			</g>
			<g id="XMLID_59_">
				<g id="XMLID_60_">
					<path id="XMLID_63_" fill="#4A7529" d="M681.741,381.103c0,29.677-24.046,53.727-53.713,53.727
						c-29.669,0-53.716-24.05-53.716-53.727c0-29.665,24.047-53.718,53.716-53.718C657.695,327.385,681.741,351.438,681.741,381.103
						z"/>
				</g>
				<path opacity="0.19" fill="#FFFFFF" enable-background="new    " d="M627.058,327.385c-0.687,0-1.338,0.075-2.003,0.094
					c23.403,3.826,41.258,24.076,41.258,48.552c0,27.188-22.034,49.248-49.236,49.248c-13.496,0-25.734-5.451-34.647-14.263
					c9.646,14.357,26.026,23.813,44.63,23.813c29.67,0,53.721-24.05,53.721-53.727C680.778,351.438,656.729,327.385,627.058,327.385
					z"/>
			</g>
		</g>
	</g>
</g>
<path id="XMLID_55_" fill="#282828" d="M141.517,483.287c0,2.647-11.232,4.786-25.064,4.786c-13.845,0-25.081-2.139-25.081-4.786
	c0-2.646,11.236-4.778,25.081-4.778C130.285,478.509,141.517,480.641,141.517,483.287z"/>
<g id="XMLID_50_">
	<path id="XMLID_54_" fill="#8D6E63" d="M119.176,440.07c-0.881,0.102-4.767,2.396-8.668,4.841l-3.466-53.764h-9.169l-0.641,40.278
		c-5.828-3.507-14.576-8.685-15.811-8.831c-1.877-0.216-1.255,1.474,0.216,2.491c1.048,0.789,10.079,8.617,15.468,14.04
		l-0.727,45.231h16.668l-2.042-31.872c3.911-4.036,8.022-7.944,8.798-8.509C121.261,442.92,121.054,439.861,119.176,440.07z"/>
	<path id="XMLID_51_" opacity="0.4" fill="#282828" enable-background="new    " d="M119.794,444.04
		c-0.81,0.527-4.962,4.41-8.822,8.422l2.011,31.939h-9.213v-93.254h3.332l3.337,53.689c4.007-2.395,7.887-4.666,8.676-4.811
		C120.999,439.899,121.261,442.961,119.794,444.04z"/>
</g>
<path id="XMLID_48_" fill="#4A7529" d="M19.551,326.521c0-46.516,37.699-84.231,84.22-84.231c46.51,0,84.22,37.717,84.22,84.231
	c0,46.519-37.71,84.229-84.22,84.229C57.25,410.751,19.551,373.039,19.551,326.521"/>
<path opacity="0.19" fill="#FFFFFF" enable-background="new    " d="M102.379,242.289c-1.078,0-2.094,0.121-3.138,0.145
	c36.681,6,64.684,37.754,64.684,76.125c0,42.632-34.556,77.213-77.195,77.213c-21.165,0-40.352-8.545-54.322-22.36
	c15.124,22.518,40.801,37.341,69.972,37.341c46.513,0,84.219-37.712,84.219-84.229C186.598,280.006,148.892,242.289,102.379,242.289
	z"/>
<path id="XMLID_33_" fill="#282828" d="M65.032,487.853c0,1.212-5.124,2.187-11.436,2.187c-6.316,0-11.446-0.975-11.446-2.187
	c0-1.208,5.13-2.182,11.446-2.182C59.908,485.671,65.032,486.645,65.032,487.853z"/>
<g id="XMLID_28_">
	<path id="XMLID_30_" fill="#8D6E63" d="M54.834,468.133c-0.394,0.046-2.166,1.093-3.952,2.21l-1.577-24.53h-4.186l-0.293,18.381
		c-2.655-1.598-6.648-3.962-7.213-4.034c-0.858-0.095-0.576,0.675,0.099,1.144c0.477,0.356,4.596,3.933,7.059,6.407l-0.333,20.635
		h7.602l-0.93-14.544c1.786-1.845,3.663-3.623,4.016-3.881C55.791,469.434,55.694,468.042,54.834,468.133z"/>
	<path id="XMLID_29_" opacity="0.4" fill="#282828" enable-background="new    " d="M55.125,469.944
		c-0.372,0.241-2.268,2.011-4.031,3.845l0.919,14.567h-4.202v-42.545h1.519l1.525,24.497c1.827-1.093,3.598-2.131,3.962-2.197
		C55.673,468.059,55.791,469.455,55.125,469.944z"/>
</g>
<path id="XMLID_27_" fill="#74A329" d="M9.381,416.324c0-21.228,17.203-38.433,38.429-38.433s38.427,17.205,38.427,38.433
	c0,21.226-17.201,38.432-38.427,38.432S9.381,437.55,9.381,416.324"/>
<path opacity="0.19" fill="#FFFFFF" enable-background="new    " d="M15.125,437.721c6.899,10.272,18.617,17.035,31.926,17.035
	c21.225,0,38.427-17.206,38.427-38.432c0-21.228-17.202-38.433-38.427-38.433c-0.491,0-0.955,0.054-1.432,0.064
	c16.738,2.736,29.518,17.227,29.518,34.736c0,19.45-15.772,35.228-35.225,35.228C30.252,447.921,21.498,444.021,15.125,437.721"/>
<path opacity="0.2" fill="#666666" enable-background="new    " d="M685.154,595.787c0-15.084-135.985-27.317-303.737-27.317
	c-167.751,0-303.743,12.233-303.743,27.317"/>
<g id="XMLID_41_">
	<g id="XMLID_42_">
		<g id="XMLID_65_">
			<path id="XMLID_66_" fill="#E5E4D1" d="M168.165,319.442c0-4.913,3.996-8.908,8.912-8.908h19.504c4.914,0,8.91,3.995,8.91,8.908
				v6.45h-37.326V319.442z M201.801,319.442c0-2.878-2.341-5.223-5.22-5.223h-19.504c-2.887,0-5.223,2.345-5.223,5.223v2.767h29.947
				V319.442z"/>
		</g>
		<g id="XMLID_37_">
			<g>
				<path id="XMLID_95_" fill="#001E0F" d="M168.17,319.442v6.45h37.32v-6.45c0-3.441-1.969-6.438-4.833-7.898
					c-0.146-0.089-0.296-0.161-0.453-0.235c-0.044-0.022-0.113-0.047-0.161-0.071c-1.066-0.457-2.236-0.702-3.463-0.702h-19.498
					C172.161,310.534,168.17,314.527,168.17,319.442z M171.859,319.442c0-2.872,2.33-5.223,5.224-5.223h19.498
					c2.875,0,5.22,2.351,5.22,5.223v2.767H171.86L171.859,319.442L171.859,319.442z"/>
			</g>
		</g>
		<g id="XMLID_35_">
			<polygon id="XMLID_36_" fill="#E5E4D1" points="168.165,319.439 168.165,325.382 205.491,325.382 205.491,325.894 
				168.165,325.894 168.165,319.442 			"/>
		</g>
		<path id="XMLID_34_" fill="#432918" d="M200.657,311.544c5.292,3.316,4.5,8.995,4.5,8.995l0.333,0.528v-1.625
			C205.491,316.001,203.522,313.006,200.657,311.544z"/>
		<path fill="#A8661E" d="M134.087,323.111v64.473c0,1.217,0.974,2.203,2.204,2.203H237.36c1.23,0,2.208-0.986,2.208-2.203v-64.473
			c0-1.206-0.977-2.203-2.208-2.203H136.291C135.062,320.908,134.087,321.905,134.087,323.111z"/>
		<path fill="#414042" d="M227.075,320.908c1.852,5.938,6.543,10.635,12.493,12.463v-10.26c0-1.206-0.977-2.203-2.208-2.203H227.075
			z"/>
		<path fill="#414042" d="M134.087,323.111v10.578c6.509-1.536,11.722-6.446,13.69-12.781H136.29
			C135.062,320.908,134.087,321.905,134.087,323.111z"/>
		<path fill="#414042" d="M134.087,374.001v13.583c0,1.217,0.974,2.203,2.204,2.203h12.154
			C147.373,382.023,141.602,375.77,134.087,374.001z"/>
		<path fill="#414042" d="M239.567,374.001v13.583c0,1.217-0.975,2.203-2.204,2.203h-12.154
			C226.281,382.023,232.052,375.77,239.567,374.001z"/>
		<rect id="XMLID_62_" x="208.534" y="320.533" fill="#E24242" width="9.524" height="69.627"/>
		<rect id="XMLID_32_" x="156.007" y="320.533" fill="#E24242" width="9.519" height="69.627"/>
		<path id="XMLID_31_" fill="none" stroke="#EFCA23" stroke-width="1.08" stroke-miterlimit="10" d="M211.211,343.675h4.177
			c1.479,0,2.67-1.193,2.67-2.67v-4.079c0-1.478-1.191-2.669-2.67-2.669h-4.177c-1.479,0-2.677,1.191-2.677,2.669v4.079
			C208.534,342.48,209.732,343.675,211.211,343.675z"/>
		<path id="XMLID_1_" fill="none" stroke="#EFCA23" stroke-width="1.08" stroke-miterlimit="10" d="M158.234,343.675h5.064
			c1.233,0,2.227-0.997,2.227-2.229v-4.969c0-1.229-0.994-2.222-2.227-2.222h-5.064c-1.233,0-2.227,0.993-2.227,2.222v4.969
			C156.007,342.678,157.001,343.675,158.234,343.675z"/>
		<path id="XMLID_53_" opacity="0.3" fill="#BE894A" enable-background="new    " d="M134.087,323.108v64.47
			c0,1.219,0.98,2.202,2.204,2.202h8.893c-11.381-45.276-5.445-63.419-2.603-68.872h-6.29
			C135.067,320.908,134.087,321.902,134.087,323.108z"/>
	</g>
</g>
<g>
	<path fill="#414042" d="M270.808,398.759c0-4.974-4.026-9.003-8.999-9.003H142.552c-4.964,0-9,4.029-9,9.003v15.864v14.381
		c0,4.968,4.036,9.002,9,9.002H261.81c4.973,0,8.999-4.034,8.999-9.002v-14.381L270.808,398.759L270.808,398.759z"/>
	<path opacity="0.2" fill="#414042" enable-background="new    " d="M179.607,427.123c-18.166-0.822-41.614-14.534-43.284-34.852
		c-1.708,1.636-2.771,3.934-2.771,6.486v15.864v14.381c0,4.968,4.036,9.002,9,9.002H261.81c4.973,0,8.999-4.034,8.999-9.002v-1.416
		C240.392,429.362,210.264,428.521,179.607,427.123z"/>
	<g opacity="0.3">
		<rect x="133.552" y="416.925" fill="#414042" width="137.256" height="1.744"/>
	</g>
	<rect x="156.878" y="389.756" fill="#231F20" width="14.853" height="48.25"/>
	<rect x="232.482" y="389.756" fill="#231F20" width="14.852" height="48.25"/>
	<path fill="#231F20" d="M213.748,417.58c0-1.572-1.279-2.85-2.851-2.85h-22.558c-1.574,0-2.85,1.276-2.85,2.85l0,0
		c0,1.575,1.276,2.856,2.85,2.856h22.558C212.468,420.438,213.748,419.155,213.748,417.58L213.748,417.58z"/>
	<path fill="#BCBEC0" d="M213.361,419.009c-0.488,0.854-1.41,1.429-2.465,1.429h-22.558c-0.794,0-1.498-0.32-2.023-0.835
		c-0.513-0.521-0.831-1.236-0.831-2.021c0-1.053,0.572-1.971,1.426-2.465c-0.247,0.42-0.382,0.905-0.382,1.432
		c0,0.793,0.318,1.5,0.831,2.021c0.514,0.515,1.23,0.833,2.015,0.833h22.557C212.453,419.4,212.943,419.263,213.361,419.009z"/>
</g>
<g>
	<path fill="#1796CE" d="M495.23,305.93c0-4.975-5.639-9-12.59-9H315.782c-6.955,0-12.594,4.026-12.594,9v15.868v14.381
		c0,4.968,5.639,9.001,12.594,9.001h166.858c6.951,0,12.59-4.033,12.59-9.001v-14.381V305.93z"/>
	<path opacity="0.2" fill="#414042" enable-background="new    " d="M367.619,334.299c-25.412-0.828-58.22-14.537-60.557-34.853
		c-2.386,1.635-3.874,3.935-3.874,6.484v15.868v14.381c0,4.968,5.639,9.001,12.594,9.001h166.858c6.951,0,12.59-4.033,12.59-9.001
		v-1.418C452.67,336.534,410.52,335.692,367.619,334.299z"/>
	<g opacity="0.3">
		<rect x="303.188" y="324.096" fill="#414042" width="192.042" height="1.749"/>
	</g>
	<rect x="335.822" y="296.929" fill="#231F20" width="20.782" height="48.25"/>
	<rect x="441.605" y="296.929" fill="#231F20" width="20.781" height="48.25"/>
	<path fill="#231F20" d="M415.395,324.756c0-1.574-1.789-2.852-3.99-2.852h-31.563c-2.207,0-3.986,1.276-3.986,2.852l0,0
		c0,1.571,1.78,2.854,3.986,2.854h31.563C413.605,327.61,415.395,326.327,415.395,324.756L415.395,324.756z"/>
	<path fill="#BCBEC0" d="M414.855,326.181c-0.688,0.858-1.971,1.431-3.452,1.431H379.84c-1.11,0-2.1-0.319-2.829-0.835
		c-0.718-0.52-1.167-1.239-1.167-2.021c0-1.051,0.799-1.968,1.993-2.468c-0.336,0.421-0.53,0.911-0.53,1.434
		c0,0.792,0.445,1.502,1.162,2.02c0.721,0.519,1.72,0.835,2.822,0.835h31.552C413.58,326.573,414.265,326.438,414.855,326.181z"/>
</g>
<g>
	<path fill="#1796CE" d="M124.549,437.789c4.969,0,9.003-4.029,9.003-8.998V309.533c0-4.973-4.034-9.001-9.003-9.001h-15.867H94.299
		c-4.966,0-8.999,4.028-8.999,9.001v119.258c0,4.969,4.033,8.998,8.999,8.998h14.384H124.549L124.549,437.789z"/>
	<path opacity="0.2" fill="#414042" enable-background="new    " d="M96.182,346.58c0.825-18.16,14.535-41.607,34.858-43.279
		c-1.642-1.705-3.94-2.769-6.491-2.769h-15.867H94.299c-4.966,0-8.999,4.028-8.999,9.001v119.258c0,4.969,4.033,8.998,8.999,8.998
		h1.418C93.949,407.368,94.786,377.247,96.182,346.58z"/>
	<g opacity="0.3">
		<rect x="107.811" y="300.532" fill="#414042" width="1.746" height="137.257"/>
	</g>
	<rect x="85.3" y="323.855" fill="#231F20" width="48.252" height="14.853"/>
	<rect x="85.3" y="399.461" fill="#231F20" width="48.252" height="14.854"/>
	<path fill="#231F20" d="M108.934,386.337c1.824,0,3.299-1.479,3.299-3.304v-26.102c0-1.822-1.475-3.302-3.299-3.302l0,0
		c-1.823,0-3.3,1.479-3.3,3.302v26.102C105.634,384.858,107.111,386.337,108.934,386.337L108.934,386.337z"/>
	<path fill="#BCBEC0" d="M107.277,385.889c-0.984-0.564-1.643-1.627-1.643-2.854v-26.102c0-0.921,0.367-1.733,0.964-2.341
		c0.6-0.596,1.432-0.961,2.336-0.961c1.217,0,2.278,0.657,2.855,1.648c-0.484-0.279-1.05-0.443-1.658-0.443
		c-0.915,0-1.735,0.369-2.34,0.963c-0.593,0.594-0.96,1.422-0.96,2.33v26.105C106.831,384.833,106.991,385.402,107.277,385.889z"/>
</g>
<g>
	<path fill="#E24242" d="M460.949,257.68c0-4.971-4.03-9.003-8.999-9.003H332.69c-4.969,0-8.999,4.033-8.999,9.003v15.866v14.383
		c0,4.97,4.03,9,8.999,9h119.26c4.968,0,8.999-4.031,8.999-9v-14.383V257.68z"/>
	<path opacity="0.2" fill="#414042" enable-background="new    " d="M369.743,286.048c-18.164-0.828-41.613-14.533-43.282-34.858
		c-1.708,1.64-2.77,3.939-2.77,6.49v15.866v14.383c0,4.97,4.03,9,8.999,9h119.26c4.968,0,8.999-4.031,8.999-9v-1.419
		C430.528,288.278,400.404,287.44,369.743,286.048z"/>
	<g opacity="0.3">
		<rect x="323.691" y="272.668" fill="#414042" width="137.258" height="1.749"/>
	</g>
	<rect x="347.013" y="248.676" fill="#894B12" width="14.852" height="48.252"/>
	<rect x="422.617" y="248.676" fill="#894B12" width="14.857" height="48.252"/>
	<path fill="#231F20" d="M409.493,273.295c0-1.821-1.474-3.298-3.299-3.298h-26.102c-1.826,0-3.3,1.477-3.3,3.298l0,0
		c0,1.824,1.475,3.3,3.3,3.3h26.102C408.02,276.595,409.493,275.119,409.493,273.295L409.493,273.295z"/>
	<path fill="#BCBEC0" d="M409.048,274.952c-0.564,0.985-1.626,1.644-2.854,1.644h-26.102c-0.918,0-1.738-0.364-2.338-0.963
		c-0.597-0.6-0.962-1.43-0.962-2.339c0-1.216,0.657-2.276,1.644-2.855c-0.279,0.484-0.44,1.054-0.44,1.656
		c0,0.918,0.368,1.739,0.958,2.342c0.598,0.596,1.426,0.96,2.338,0.96h26.099C407.992,275.397,408.558,275.238,409.048,274.952z"/>
</g>
<path fill="#E24242" d="M294.893,355.861c0,0,0-4.176-34.172-1.223c-22.423,1.936-22.427,45.214-34.971,63.32
	c-4.672,6.741-173.901-5.509-173.901,21.771c0,35.191-11.762,118.179,33.61,118.179c72.319,0,179.604,1.187,179.604,1.187
	L294.893,355.861z"/>
<path opacity="0.5" fill="#E24242" enable-background="new    " d="M282.494,375.302c-5.907,18.446-11.812,7.748-23.616,50.182
	c-5.132,18.44,3.935,45.016-1.229,63.464c-13.776,13.525-6.89,27.304-12.052,45.013c-0.74,4.43-5.167,8.854-8.859,9.592
	c-51.654,2.957-103.308,0-154.965-2.95c-19.924-1.478-25.094-24.351-26.569-40.584c-0.792-13.054-1.157-25.896-1.67-38.634
	c-0.101-2.52,192.376-5.033,192.258-7.548c-94.456-3.719-193.54,6.575-193.528-16.343c-0.268,0.715-0.415,1.464-0.415,2.239
	c0,35.191-11.762,118.179,33.61,118.179c72.319,0,179.604,1.187,179.604,1.187l29.284-199.548
	C287.971,362.233,284.277,368.764,282.494,375.302z"/>
<g>
	<path fill="#680003" d="M635.54,503.61c0,0,9.811-24.843,2.517-31.481c-50.7-46.18-99.299-68.3-115.669-80.895
		c-48.481-35.886-49.92-26.892-82.657-26.892c-32.74,0-83.109,0-117.111,0c-33.996,0-46.591,70.636-46.591,85.116
		c0,14.485,3.148,31.063,3.148,31.063s-9.131,4.827-9.131,20.83c0,32.737,12.275,33.736,12.275,33.736h31.694h89.404h26.865
		c0,0,26.957,0,61.07,0c14.242,0,29.729-38.722,45.021-38.722c15.017,0,29.843,38.722,43.126,38.722c25.553,0,45.376,0,49.738,0
		C646.236,528.585,635.54,503.61,635.54,503.61z M395.657,426.542c0,6.607-5.359,11.963-11.966,11.963h-71.145
		c-6.607,0-11.964-5.354-11.964-11.963l9.023-34.154c1.888-7.137,8.295-11.964,14.903-11.964h59.183
		c6.607,0,11.966,5.354,11.966,11.964V426.542L395.657,426.542z M497.234,430.375c-1.679,7.137-8.081,8.13-19.102,8.13
		c-11.017,0-52.411,0-52.411,0s-13.692-1.417-13.692-14.009c0-12.59,0-34.837,0-34.837s-0.633-9.235,7.339-9.235
		c6.041,0,15.731,0,22.043,0c3.663,0,5.151,0.632,6.605,1.151c2.648,0.95,6.853,2.415,15.429,8.292
		c20.574,14.102,32.319,30.013,32.319,30.013S498.916,423.237,497.234,430.375z"/>
</g>
<g>
	<g>
		<path fill="#FFD9AB" d="M338.802,422.957c0,0,5.308,0.685,5.727-2.489c0.415-3.171-0.038-4.741-0.038-4.741l8.635,0.809
			c0,0-0.699,5.287,1.294,5.633c2.334,0.319,3.369-0.514,3.119,1.277c-0.242,1.795-4.291,3.58-6.115,3.636
			C349.595,427.132,340.341,427.196,338.802,422.957z"/>
		<path fill="#FFD9AB" d="M353.293,420.891c-0.516-1.671-0.167-4.355-0.167-4.355l-8.635-0.809c0,0,0.405,1.42,0.091,4.274
			C347.234,422.022,350.271,421.551,353.293,420.891z"/>
	</g>
	<g>
		<path fill="#FFD9AB" d="M368.245,433.521c0,0,6.251-4.553,12.025-8.094c1.818-2.771,6.515-3.594,9-20.52
			c1.232-2.218,1.5-5.892,0.869-7.725c-0.103-0.271-1.142-1.68-1.13,0.164c0.004,0.92-0.146,2.101-0.146,2.101s0.084-3.002-0.33-3.8
			c-0.854-1.678-1.59-1.084-1.443-0.512c0.422,1.636,0.086,1.992-0.271,3.584c0.212-1.612-0.063-1.981-0.898-4.132
			c-0.308-0.735-1.556-0.144-0.987,1.048c0.731,1.538,0.21,2.377-0.019,3.414c0.084-2.055-0.008-2.5-0.646-3.397
			c-0.172-0.24-0.282-0.355-0.925-0.14c-0.64,0.213,0.668,2.809-0.008,4.266c-0.542,1.174-1.488,0.177-2.148-0.526
			c-0.662-0.707-1.789,0.618,0.394,2.771c2.188,2.159,1.902,3.175,1.902,3.175s-5.825,8.264-7.289,11.927
			c-7.047,3.769-9.332,4.694-9.332,4.694L368.245,433.521z"/>
		<g>
			<path fill="#4A7529" d="M357.082,422.257c0,0,9.257-0.268,14.543-3.351c3.565,1.598,4.075,11.411,4.075,11.411
				s-7.735,6.099-17.026,4.961c-5.8-0.711-3.086-4.938-1.645-8.518C357.89,424.606,357.082,422.257,357.082,422.257z"/>
			<path opacity="0.3" fill="#FF89AC" enable-background="new    " d="M364.144,429.836c-3.337-0.523-4.383-4.843-7.348-6.539
				c0.109,0.872,0.113,2.049-0.338,3.178c-1.437,3.582-4.152,7.806,1.646,8.52c9.29,1.139,17.03-4.961,17.03-4.961
				s-0.215-4.102-1.332-7.434C373.081,427.335,369.408,431.235,364.144,429.836z"/>
		</g>
	</g>
	<g>
		<path fill="#4A7529" d="M327.299,426.934c0,0,3.2-4.645,14.998-4.946c1.131,2.435,10.153,9.214,11.766-0.043
			c0.078-0.467,1.334-0.14,2.475,0.084c6.476,7.695,6.795,17.795,6.573,23.354c-17.154-0.592-34.873-2.484-34.873-2.484
			S325.166,433.01,327.299,426.934z"/>
		<path opacity="0.3" fill="#613E98" enable-background="new    " d="M336.331,432.106c1.943,0.875,3.695,0.58,5.541,0.872
			c-1.845-0.292-3.694-0.577-4.573-2.233c-0.097-0.587,2.838,0.801,2.054-0.271c-5.908-6.908-6.572-5.513-10.603-4.891
			c-1.044,0.767-1.451,1.349-1.451,1.349c-1.378,3.93-0.583,9.444,0.155,12.859C331.397,438.38,336.672,437.245,336.331,432.106z"/>
		<path opacity="0.3" fill="#613E98" enable-background="new    " d="M356.538,422.027c-0.449-0.092-0.915-0.192-1.321-0.253
			c3.944,6.824,1.932,16.109-3.99,20.431c-1.152,0.957-2.364,1.723-3.638,2.348c4.87,0.338,10.221,0.646,15.521,0.829
			C363.333,439.822,363.014,429.724,356.538,422.027z"/>
	</g>
</g>
<g>
	<g>
		<path fill="#FFD9AB" d="M316.999,434.733c0,0-3.888,4.548-4.803,6.776c-0.912,2.231,7.852,15.763,18.874,17.076
			c1.889,1.891,5.543,3.227,7.595,3.113c0.294-0.014,2.031-0.671,0.152-1.188c-0.936-0.265-1.687-0.87-1.687-0.87
			s2.626,1.068,3.552,0.883c1.95-0.388,1.568-1.308,0.941-1.321c-1.783-0.052-2.054-0.493-3.566-1.317
			c1.58,0.688,2.038,0.517,4.461,0.287c0.833-0.097,0.595-1.534-0.778-1.303c-1.777,0.296-2.475-0.474-3.463-1.01
			c2.067,0.684,2.54,0.718,3.638,0.333c0.297-0.109,0.441-0.188,0.414-0.901c-0.032-0.712-3.052-0.14-4.331-1.243
			c-1.035-0.894,0.251-1.563,1.157-2.031c0.909-0.465-0.111-1.993-2.932-0.402c-2.823,1.597-3.771,1.006-3.771,1.006
			s-5.275-6.319-8.569-8.874c4.682-3.41,4.547-4.94,4.547-4.94L316.999,434.733z"/>
		<g>
			<path fill="#4A7529" d="M330.266,424.509c-0.548,0.304-16.301,8.939-16.752,11.617c2.162,3.938,9.597,3.401,11.638,7.659
				c4.535-2.767,13.566-10.804,11.213-15.702C334.678,424.569,331.702,423.716,330.266,424.509z"/>
			<path opacity="0.3" fill="#FF89AC" enable-background="new    " d="M336.365,428.083c-0.146-0.299-0.305-0.574-0.468-0.84
				c-0.189,7.398-7.147,11.508-14.022,13.618c1.413,0.685,2.623,1.557,3.276,2.924C329.687,441.02,338.718,432.981,336.365,428.083z
				"/>
		</g>
	</g>
	<g>
		<path fill="#FFD9AB" d="M368.446,400.889c-0.214,10.788-8.89,19.369-19.93,19.148c-10.549-0.211-18.764-7.88-19.128-17.564
			c-0.031-0.778-0.038-1.564-0.025-2.371c0.22-10.791,9.142-19.359,19.937-19.148C360.088,381.17,368.664,390.094,368.446,400.889z"
			/>
		<path opacity="0.4" fill="#FFD9AB" enable-background="new    " d="M368.446,400.889c0.084-4.103-1.104-7.932-3.2-11.116
			c0.008,8.405,1.708,16.438-3.079,25.165C365.96,411.45,368.336,406.467,368.446,400.889z"/>
		<path fill="#894B12" d="M328.263,402.673c3.679-2.116,4.628-3.37,6.206-6.099c0.28,1.561-1.353,2.153-1.434,3.069
			c5.254-2.276,11.811-2.141,15.013-2.514c3.678-0.428,9.015-2.293,12.141-5.018c0,0-1.251,2.26-4.321,4.041
			c4.406-0.789,5.202-2.854,5.953-2.634c0.751,0.223,2.157,9.428,2.679,10.439c0.894,1.737,1.265-2.523,2.142-2.413
			c0.537,6.906-1.918,9.862-1.965,10.477c-0.025,0.275,0.613,0.275,1.499,0.125c0,0,5.05-5.716,4.727-15.332
			c-0.057-1.736-0.525-3.739-1.069-5.386c-0.589-1.775-1.683-3.998-2.816-5.426c-1.183-1.498-2.675-3.335-4.366-4.261
			c-1.124-0.617-5.995-2.626-10.155-3.259c-4.622-0.701-10.346-0.076-14.663,1.768C323.574,386.334,325.988,403.045,328.263,402.673
			z"/>
		<path fill="#FFD9AB" d="M371.868,405.293c-0.228,2.126-2.163,3.657-4.317,3.424c-2.157-0.229-1.969-1.954-1.74-4.075
			c0.23-2.124,0.408-3.845,2.565-3.613C370.53,401.264,372.098,403.172,371.868,405.293z"/>
		<path fill="#FFD9AB" d="M324.842,404.355c0.147,2.129,2.015,3.735,4.182,3.594c2.166-0.146,2.043-1.873,1.901-4.006
			c-0.146-2.129-0.251-3.857-2.417-3.709C326.341,400.381,324.703,402.223,324.842,404.355z"/>
		<path fill="#FFD9AB" d="M326.911,404.246c0.063,0.92,0.87,1.615,1.808,1.553c0.937-0.063,0.883-0.809,0.824-1.731
			c-0.063-0.92-0.111-1.665-1.048-1.603C327.561,402.525,326.85,403.323,326.911,404.246z"/>
		<path fill="#FFD9AB" d="M369.699,405.057c-0.099,0.92-0.938,1.579-1.872,1.483c-0.934-0.104-0.851-0.848-0.752-1.765
			c0.104-0.916,0.179-1.663,1.111-1.564C369.116,403.311,369.792,404.137,369.699,405.057z"/>
		<path fill="#894B12" d="M336.693,399.751c0.839-0.526,4.197-2.391,8.619-1.577c0.186,0.034,0.293,0.23,0.217,0.403l-0.192,0.436
			c-0.05,0.128-0.181,0.196-0.317,0.173c-0.84-0.155-3.959-0.555-8.065,1.082c-0.152,0.06-0.315-0.014-0.376-0.166l0,0
			C336.524,399.975,336.573,399.823,336.693,399.751z"/>
		<path fill="#894B12" d="M361.679,400.25c-0.813-0.559-4.098-2.557-8.543-1.921c-0.188,0.03-0.303,0.218-0.236,0.394l0.173,0.447
			c0.051,0.127,0.177,0.203,0.308,0.182c0.851-0.12,3.978-0.395,8.018,1.402c0.149,0.068,0.318,0,0.382-0.146l0,0
			C361.836,400.477,361.798,400.331,361.679,400.25z"/>
		<path fill="#FFD9AB" d="M351.189,408.529c0.005,0.346-0.854,0.013-1.935,0.029c-1.081,0.021-1.979,0.376-1.983,0.034
			c-0.008-0.343,0.877-1.256,1.961-1.272C350.314,407.301,351.187,408.185,351.189,408.529z"/>
	</g>
	<path fill="#894B12" d="M336.802,402.072c0,0,2.155,0.25,2.871-0.295c0.721-0.549,3.167-1.234,4.582,0.212
		c0.173,0.478-0.839,0.297-2.157,0.032c-2.13-0.426-2.943,1.286-4.305,0.868c0.544-0.1,0.712-0.277,0.765-0.356
		C338.607,402.465,337.098,402.643,336.802,402.072z"/>
	<path fill="#894B12" d="M361.082,402.072c0,0-2.158,0.25-2.872-0.295c-0.723-0.549-3.168-1.234-4.584,0.212
		c-0.173,0.478,0.839,0.297,2.157,0.032c2.132-0.426,2.943,1.286,4.312,0.868c-0.551-0.1-0.717-0.277-0.768-0.356
		C359.274,402.465,360.783,402.643,361.082,402.072z"/>
	<g>
		<path fill="#FFD9AB" d="M353.673,412.251c-0.251,1.082-1.075,2.123-2.148,2.789c-1.373,0.845-3.153,1.077-4.671-0.016
			c-0.767-0.552-1.463-1.448-2-2.773C344.854,412.251,349.227,412.548,353.673,412.251z"/>
		<path fill="#FFFFFF" d="M353.645,412.206c-0.107,0.456-0.32,0.917-0.608,1.334c-3.181,0.168-6.229,0.066-7.54,0
			c-0.248-0.388-0.478-0.831-0.676-1.334C344.821,412.206,349.196,412.505,353.645,412.206z"/>
		<path fill="#FFFFFF" d="M351.524,415.04c-1.373,0.845-3.153,1.077-4.671-0.016C348.074,415.064,349.732,415.089,351.524,415.04z"
			/>
	</g>
</g>
<g>
	<g>
		<path fill="#FFC599" d="M447.208,417.348l0.141,2.787c0.022,0.431-0.227,0.832-0.616,1.01l-8.398,4.067
			c-0.796,0.361-0.564,2.035,0.203,2.448c1.89,1.01,5.098,1.722,10.035,1.253c6.351-0.599,13.834-2.086,18.884-6.552
			c3.911-3.466,3.009,2.329,2.475,2.128c-0.132-0.045-6.921,4.896-4.585-1.515l-4.349-5.229c-0.44,0.036-0.857-0.212-1.038-0.614
			l-1.283-2.826c-0.167-0.369-0.527-0.606-0.937-0.62c-1.541-0.028-6.439,0.375-10.054,2.727
			C447.371,416.612,447.189,416.971,447.208,417.348z"/>
		<g>
			<path fill="#FFC599" d="M468.25,386.477c1.184,5.163,1.083,10.26-0.084,14.812c-0.079,0.327-0.172,0.651-0.264,0.97
				c-2.295,7.759-7.78,13.757-15.372,15.5c-7.003,1.604-13.954-0.563-19.184-5.306c-0.978-0.891-1.896-1.865-2.746-2.926
				c-2.23-2.774-3.967-6.119-5.027-9.891c-0.288-1.033-0.56-2.087-0.8-3.163c-3.322-14.516,3.718-28.521,15.725-31.281
				C452.505,362.433,464.926,371.962,468.25,386.477z"/>
			<path fill="#9E482A" d="M424.55,399.932c3.479-3.629,3.838-5.166,3.896-5.231c0.688-0.732,4.479-8.738,6.931-11.254
				c5.188-5.318,17.739-0.508,23.844-7.414c0.615-0.699-0.932,4.365,2.383,7.778c1.666,1.718,5.024,4.918,6.048,4.8
				c2.686,8.268,5.079,4.172,2.549-7.793c-1.414-6.679-9.761-12.694-11.565-13.081c0,0-3.853-1.757-3.871-1.771
				c-0.156-0.118-1.428-0.046-1.428-0.046s-13.546-5.199-24.847,3.957C414.343,381.334,422.112,401.023,424.55,399.932z"/>
			<path fill="#FFC599" d="M475.594,390.364c0.408,2.864-1.469,5.484-4.201,5.847c-2.735,0.363-3.063-1.96-3.475-4.822
				c-0.417-2.866-0.758-5.186,1.971-5.555C472.628,385.473,475.178,387.5,475.594,390.364z"/>
			<path fill="#FFC599" d="M421.032,402.128c0.809,2.563,3.438,3.99,5.868,3.189c2.432-0.806,1.769-2.876,0.957-5.442
				c-0.814-2.56-1.461-4.638-3.895-3.84C421.533,396.842,420.218,399.566,421.032,402.128z"/>
			<path fill="#F9B180" d="M423.359,401.396c0.354,1.113,1.489,1.729,2.541,1.381c1.055-0.347,0.769-1.244,0.412-2.355
				c-0.351-1.106-0.633-2.002-1.685-1.657C423.583,399.115,423.011,400.293,423.359,401.396z"/>
			<path fill="#F9B180" d="M472.835,390.727c0.18,1.241-0.632,2.37-1.818,2.532c-1.182,0.154-1.319-0.847-1.5-2.087
				c-0.178-1.24-0.329-2.244,0.856-2.402C471.552,388.611,472.656,389.49,472.835,390.727z"/>
			<path fill="#9E482A" d="M431.122,393.846c0.856-0.948,4.388-4.446,10.095-4.748c0.239-0.016,0.435,0.21,0.4,0.458l-0.089,0.637
				c-0.025,0.182-0.165,0.313-0.339,0.325c-1.086,0.056-5.062,0.5-9.575,3.929c-0.165,0.126-0.399,0.084-0.52-0.099l0,0
				C430.991,394.193,430.998,393.982,431.122,393.846z"/>
			<path fill="#9E482A" d="M462.056,386.736c-1.186-0.48-5.881-2.087-11.151,0.133c-0.217,0.092-0.301,0.382-0.156,0.59l0.354,0.533
				c0.1,0.153,0.286,0.212,0.445,0.147c1.003-0.427,4.774-1.755,10.33-0.647c0.205,0.046,0.395-0.097,0.425-0.308l0,0
				C462.33,386.996,462.229,386.81,462.056,386.736z"/>
			<path fill="#F9B180" d="M451.844,400.9c0.124,0.446-1.046,0.283-2.37,0.641c-1.327,0.359-2.313,1.108-2.434,0.654
				c-0.119-0.441,0.673-1.92,2.003-2.281C450.369,399.555,451.725,400.451,451.844,400.9z"/>
			<g>
				<g>
					<path fill="#FFFFFF" d="M462.521,393.169c-0.707,2.263-2.803,3.678-5.358,3.868c-2.192,0.161-4.431-0.826-4.616-2.26
						c-0.379-2.944,1.169-5.36,4.082-5.869C458.663,388.552,461.434,389.212,462.521,393.169z"/>
					<path fill="#7DCCC2" d="M460.714,392.31c0.347,1.885-0.817,3.666-2.585,3.975c-1.767,0.311-3.478-0.975-3.816-2.861
						c-0.344-1.885,0.816-3.666,2.586-3.973C458.663,389.143,460.377,390.422,460.714,392.31z"/>
					<path d="M459.544,392.512c0.216,1.195-0.519,2.326-1.641,2.521c-1.125,0.198-2.206-0.618-2.421-1.813
						c-0.211-1.194,0.521-2.328,1.643-2.521C458.245,390.506,459.33,391.316,459.544,392.512z"/>
					<path fill="#FFFFFF" d="M456.325,392.242c0.105,0.57-0.246,1.106-0.784,1.204c-0.531,0.092-1.051-0.296-1.155-0.865
						c-0.103-0.575,0.246-1.113,0.782-1.204C455.704,391.285,456.222,391.668,456.325,392.242z"/>
					<path fill="#FFFFFF" d="M460.396,392.842c0.064,0.375-0.164,0.724-0.514,0.781c-0.345,0.063-0.684-0.191-0.751-0.561
						c-0.065-0.371,0.163-0.724,0.506-0.784C459.991,392.219,460.329,392.469,460.396,392.842z"/>
				</g>
				<g>
					<path fill="#FFFFFF" d="M432.789,399.998c1.626,1.725,4.124,2.094,6.512,1.141c2.04-0.808,3.627-2.676,3.168-4.047
						c-0.937-2.815-3.387-4.311-6.229-3.494C434.255,394.16,432.044,395.963,432.789,399.998z"/>
					<path fill="#7DCCC2" d="M434.045,398.438c0.513,1.847,2.326,2.941,4.055,2.444c1.726-0.497,2.707-2.394,2.195-4.241
						c-0.517-1.845-2.335-2.939-4.058-2.443C434.506,394.693,433.525,396.59,434.045,398.438z"/>
					<path d="M435.182,398.107c0.329,1.17,1.482,1.866,2.573,1.553c1.097-0.314,1.72-1.52,1.395-2.689
						c-0.328-1.17-1.476-1.862-2.573-1.551C435.483,395.734,434.855,396.938,435.182,398.107z"/>
					<path fill="#FFFFFF" d="M437.962,396.46c0.158,0.556,0.708,0.89,1.23,0.738c0.524-0.146,0.814-0.725,0.665-1.284
						c-0.155-0.556-0.704-0.889-1.232-0.738C438.108,395.322,437.808,395.9,437.962,396.46z"/>
					<path fill="#FFFFFF" d="M434.563,398.777c0.104,0.362,0.464,0.573,0.799,0.479c0.341-0.101,0.536-0.47,0.437-0.838
						c-0.105-0.363-0.465-0.578-0.804-0.479C434.655,398.039,434.462,398.41,434.563,398.777z"/>
				</g>
			</g>
			<path fill="#9E482A" d="M428.123,410.508"/>
			<path fill="#FFC599" d="M451.463,405.284"/>
			<g>
				<path fill="#F9B180" d="M456.886,405.408c0,0-0.305,1.693-1.591,2.838c-2.025,1.813-5.753,2.372-7.913,2.044
					c-2.159-0.333-2.921-1.865-2.921-1.865L456.886,405.408z"/>
				<path fill="#FFFFFF" d="M456.886,405.408l-12.425,3.017c0,0,0.179,0.333,0.57,0.722c3.723-0.671,7.857-1.405,11.504-2.674
					C456.799,405.873,456.886,405.408,456.886,405.408z"/>
			</g>
			<g>
				<path fill="#9E482A" d="M449.869,404.894c0.047,0.008,0.274-0.246,0.311-0.277c0.29-0.248,0.596-0.476,0.901-0.69
					c0.967-0.671,2.026-1.221,3.153-1.565c0.887-0.268,1.813-0.405,2.739-0.353c0.444,0.025,0.941,0.063,1.372,0.146
					c0.524,0.109,1.377,0.582,1.779,0.915c0.314,0.269,0.579,0.749,0.589,1.167c0.008,0.234-0.337,0.333-0.52,0.424
					c-0.175,0.09-0.442,0.114-0.638,0.114c-0.31-0.003-0.599-0.033-0.881-0.132c-0.312-0.109-0.601-0.223-0.93-0.228
					c0.131,0.165,0.207,0.34,0.153,0.563c-0.866,0.014-1.776-0.42-2.639-0.354c0.014,0.137,0.286,0.434,0.154,0.57
					c-0.126,0.131-0.387,0.021-0.533,0.021c-0.187,0.006-0.356,0.049-0.545,0.045c-0.456-0.002-0.914-0.021-1.364-0.051
					C451.932,405.148,450.896,405.035,449.869,404.894z"/>
			</g>
			<g>
				<path fill="#9E482A" d="M451.123,404.563c-0.042,0.025-0.36-0.09-0.407-0.099c-0.37-0.081-0.745-0.143-1.118-0.187
					c-1.167-0.142-2.36-0.13-3.519,0.092c-0.906,0.177-1.789,0.495-2.584,0.978c-0.382,0.229-0.806,0.497-1.143,0.774
					c-0.415,0.339-0.942,1.156-1.146,1.64c-0.153,0.382-0.156,0.93,0.029,1.309c0.101,0.205,0.448,0.133,0.657,0.133
					c0.195-0.006,0.446-0.107,0.619-0.206c0.265-0.146,0.506-0.306,0.713-0.525c0.229-0.241,0.425-0.478,0.719-0.635
					c-0.044,0.208-0.025,0.394,0.128,0.568c0.765-0.4,1.372-1.205,2.162-1.554c0.053,0.128-0.053,0.519,0.135,0.578
					c0.166,0.062,0.342-0.164,0.48-0.229c0.167-0.084,0.334-0.124,0.503-0.214c0.397-0.223,0.792-0.451,1.18-0.69
					C449.423,405.752,450.282,405.172,451.123,404.563z"/>
			</g>
		</g>
		<path fill="#414042" d="M460.83,417.538c0,0,14.619-1.239,22.121,8.992c9.152,12.474,38.294,12.048,38.294,12.048l-4.109,8.835
			l-39.405-5.063l8.311,34.433l-36.717,8.979l-8.861-37.286l-5.611,40.259l-8.427-1.363c0.095,0.021-2.144-48.953,6.706-57.727
			c9.285-9.215,13.526-8.477,13.526-8.477S456.763,429.796,460.83,417.538z"/>
	</g>
</g>
<g>
	<path fill="#E24242" d="M712.059,521.609c0,0,3.17-27.188,3.17-39.594c0-68.888-118.766-54.634-139.354-70.467
		c-60.964-45.136-68.883-65.077-110.059-65.077c-41.171,0-104.521,0-147.274,0c-42.76,0-58.593,88.83-58.593,107.041
		s3.961,39.063,3.961,39.063s-11.482,6.074-11.482,26.194c0,41.175,15.44,42.428,15.44,42.428h39.854h112.433h33.784
		c0,0,33.901,0,76.803,0c17.908,0,37.384-48.696,56.616-48.696c18.884,0,37.533,48.696,54.232,48.696c32.138,0,57.063,0,62.553,0
		C725.519,553.017,712.059,521.609,712.059,521.609z M410.388,424.69c0,8.309-6.737,15.041-15.041,15.041h-89.474
		c-8.312,0-15.046-6.732-15.046-15.041l11.345-42.956c2.376-8.972,10.437-15.043,18.742-15.043h74.433
		c8.303,0,15.041,6.733,15.041,15.043V424.69z M538.132,429.51c-2.114,8.974-10.161,10.223-24.021,10.223
		c-13.854,0-65.912,0-65.912,0s-17.223-1.779-17.223-17.616c0-15.833,0-43.811,0-43.811s-0.796-11.613,9.238-11.613
		c7.593,0,19.779,0,27.715,0c4.609,0,6.479,0.796,8.312,1.45c3.333,1.192,8.62,3.036,19.401,10.427
		c25.873,17.733,40.642,37.74,40.642,37.74S540.248,420.533,538.132,429.51z"/>
</g>
<path opacity="0.5" fill="#E24242" enable-background="new    " d="M260.142,526.342c-2.914-13.716-1.824-27.326,8.121-31.843
	c15.241,0.86,50.613-0.287,66.113-4.287c-18.21-0.788-38.006,4.752-53.837-4.753c-20.003-11.108-18.522-35.382-17.598-56.615
	c-2.047,10.531-2.994,19.184-2.994,23.626c0,18.213,3.961,39.06,3.961,39.06s-11.482,5.74-11.482,26.197
	c0,41.173,15.44,42.431,15.44,42.431h39.854l112.433,1.041c-6.298-0.442-125.426-8.478-131.757-9.313
	C274.145,550.3,263.312,539.804,260.142,526.342z"/>
<path opacity="0.5" fill="#FFFFFF" enable-background="new    " d="M480.264,352.043c28.828,0.963,53.926,33.371,86.37,62.682
	c4.754,3.957,12.146,12.669,18.478,14.252c36.018,9.344,97.887,1.834,124.256,28.572c-24.148-42.176-115.659-33.324-133.494-47.047
	c-60.964-45.133-68.883-65.077-110.059-65.077c-41.172,0-104.521,0-147.274,0c-9.055,0-16.903,3.987-23.647,10.438
	C358.479,347.748,415.139,349.867,480.264,352.043z"/>
<path opacity="0.5" fill="#E24242" enable-background="new    " d="M712.059,520.563c0,0,0.581-4.911,1.234-11.509
	c-12.894,16.41-36.664,10.061-61.805,13.225c22.038,1.088,44.734-4.354,59.786,9.896c4.293,4.303,4.577,11.521,3.08,18.442
	C719.669,538.324,712.059,520.563,712.059,520.563z"/>
<path fill="#414042" d="M172.69,610.034c-28.136,0-50.942-22.802-50.942-50.938c0-28.138,22.807-50.938,50.942-50.938
	c28.131,0,50.935,22.802,50.935,50.938S200.821,610.034,172.69,610.034"/>
<path opacity="0.3" fill="#414042" enable-background="new    " d="M172.69,610.034c28.131,0,50.935-22.802,50.935-50.938
	c0-1.787-0.095-3.557-0.274-5.296c-1.705,24.033-15.071,42.132-34.957,45.681"/>
<path opacity="0.3" fill="#414042" enable-background="new    " d="M188.394,599.48c-19.799,3.961-46.192-3.433-54.901-22.438
	c-6.335-15.041-7.125-32.727,4.484-50.7c4.608-6.334,15.485-13.521,21.99-16.582c-21.977,5.649-38.219,25.593-38.219,49.337
	c0,28.137,22.807,50.938,50.942,50.938"/>
<path fill="#D1D3D4" d="M197.889,559.097c0,13.92-11.281,25.206-25.199,25.206c-13.924,0-25.21-11.286-25.21-25.206
	c0-13.918,11.286-25.204,25.21-25.204C186.608,533.893,197.889,545.179,197.889,559.097z"/>
<path fill="#D1D3D4" d="M155.207,540.946c-4.756,4.581-7.727,11.018-7.727,18.149c0,13.92,11.286,25.206,25.21,25.206
	c4.285,0,8.321-1.076,11.857-2.962c-3.472-0.27-6.981-0.71-10.565-1.31C156.425,575.643,148.216,556.731,155.207,540.946z"/>
<path fill="#414042" d="M586.563,610.034c-28.129,0-50.937-22.802-50.937-50.938c0-28.138,22.808-50.938,50.937-50.938
	c28.134,0,50.937,22.802,50.937,50.938C637.498,587.232,614.696,610.034,586.563,610.034"/>
<path opacity="0.3" fill="#414042" enable-background="new    " d="M586.563,610.034c28.134,0,50.937-22.802,50.937-50.938
	c0-1.787-0.089-3.557-0.272-5.296c-1.703,24.033-15.068,42.132-34.961,45.681"/>
<path opacity="0.3" fill="#414042" enable-background="new    " d="M602.265,599.48c-19.792,3.961-46.184-3.433-54.894-22.438
	c-6.336-15.041-7.124-32.727,4.487-50.7c4.605-6.334,15.481-13.521,21.989-16.582c-21.979,5.649-38.223,25.593-38.223,49.337
	c0,28.137,22.808,50.938,50.938,50.938"/>
<path fill="#D1D3D4" d="M611.768,559.097c0,13.92-11.282,25.206-25.205,25.206c-13.918,0-25.205-11.286-25.205-25.206
	c0-13.918,11.287-25.204,25.205-25.204C600.485,533.893,611.768,545.179,611.768,559.097z"/>
<path fill="#D1D3D4" d="M569.089,540.946c-4.766,4.581-7.731,11.018-7.731,18.149c0,13.92,11.287,25.206,25.205,25.206
	c4.293,0,8.329-1.076,11.862-2.962c-3.471-0.27-6.974-0.71-10.565-1.31C570.303,575.643,562.088,556.731,569.089,540.946z"/>
<path fill="#EF5252" d="M586.563,490.212c-38.983,0-70.857,30.462-73.107,68.885c0,0,20.464,5.459,27.382,0
	c13.808-10.893,20.121-32.266,47.71-32.266c28.372,0,32.259,19.271,43.345,30.881c6.083,6.378,27.773,1.385,27.773,1.385
	C657.415,520.674,625.554,490.212,586.563,490.212z"/>
<path opacity="0.2" fill="#EF5252" enable-background="new    " d="M647.932,551.97c-14.258-3.955-22.178-15.039-32.469-25.34
	c-20.585-18.207-46.712-1.578-67.303,7.128c-3.959,1.587-10.289,1.587-11.875-1.584c-3.816-7.629-3.209-15.987,1.089-22.964
	c-13.763,12.49-22.762,30.126-23.918,49.887c0,0,20.464,5.459,27.382,0c13.809-10.893,20.121-32.266,47.71-32.266
	c28.372,0,32.259,19.271,43.345,30.881c6.084,6.378,27.773,1.385,27.773,1.385c-0.175-3.049-0.56-6.043-1.107-8.982
	C655.615,552.116,651.984,552.987,647.932,551.97z"/>
<path fill="#E24242" d="M422.264,553.556c0.791,0,0.791,0,1.586,0c-4.405-0.678-8.802-1.222-13.205-1.67l9.508,8.271h25.771"/>
<path opacity="0.2" fill="#E24242" enable-background="new    " d="M482.046,535.367c-41.565,0-51.659-3.895-55.423-18.234
	c-1.275-4.844-3.336-34.604-3.52-40.365c-0.398-12.678-4.995-97.806,2.793-111.338c-2.914,2.999-5.481,7.938-5.481,16.042
	c0,18.738,0,141.996,0,141.996s-0.792,18.738,20.063,18.738c20.852,0,52.521,0,52.521,0s10.025,1.522,19.265-15.864
	c3.713-6.989,7.581-12.954,11.332-17.774C507.472,517.992,501.743,535.367,482.046,535.367z"/>
<path opacity="0.2" fill="#414042" enable-background="new    " d="M536.284,416.31c0,0-6.588-8.917-18.668-20.122
	c-9.376,10.569-20.268,19.849-33.138,25.944c-15.128,8.318-32.225,10.23-49.688,10.878c5.074,5.857,13.407,6.723,13.407,6.723
	s52.058,0,65.912,0c13.859,0,21.907-1.249,24.021-10.223C540.248,420.533,536.284,416.31,536.284,416.31z"/>
<path opacity="0.2" fill="#414042" enable-background="new    " d="M406.325,371.479c-17.472,42.229-64.734,59.658-107.422,66.539
	c2.084,1.092,4.454,1.715,6.971,1.715h89.474c8.303,0,15.041-6.732,15.041-15.041v-42.956
	C410.388,377.765,408.841,374.164,406.325,371.479z"/>
<path fill="none" stroke="#E24242" stroke-width="1.08" stroke-miterlimit="10" d="M283.304,414.198c0,0-21.507,70.208,8.843,70.208
	h106.365c0,0,15.312-0.267,15.312,12.663c0,12.939,0,16.599,0,16.599"/>
<path fill="none" stroke="#E24242" stroke-width="1.08" stroke-miterlimit="10" d="M545.786,415.781c0,0-36.951-47.771-73.37-54.896
	c-36.423,0-38.271,0-38.271,0s-13.728,1.849-13.728,20.585c0,18.738,0,141.996,0,141.996s-0.792,18.738,20.064,18.738
	c20.851,0,52.521,0,52.521,0s10.025,1.523,19.265-15.864c9.237-17.392,19.451-28.477,26.488-31.378
	c7.032-2.904,7.032-3.694,7.032-11.879C545.786,474.901,545.786,415.781,545.786,415.781z"/>
<path fill="#EF5252" d="M172.69,490.212c-38.989,0-70.863,30.462-73.107,68.885c0,0,20.455,7.589,24.937,0
	c10.295-17.417,20.583-32.755,48.171-32.755c28.37,0,34.963,16.13,46.583,32.755c5.04,7.227,26.519,0,26.519,0
	C243.545,520.674,211.675,490.212,172.69,490.212z"/>
<path opacity="0.3" fill="#EF5252" enable-background="new    " d="M226.926,550.39c-13.459-12.671-26.131-25.338-42.755-31.67
	c-18.214-6.336-34.842,7.126-51.471,13.454c-3.955,1.584-11.874,3.171-13.458-0.786c-1.971-9.839,2.784-18.753,9.32-26.373
	c-16.597,12.552-27.685,31.993-28.979,54.082c0,0,20.455,7.589,24.937,0c10.295-17.417,20.583-32.755,48.171-32.755
	c28.37,0,34.963,16.13,46.583,32.755c5.04,7.227,26.519,0,26.519,0c-0.108-1.894-0.309-3.757-0.561-5.607
	c-0.038,0.021-0.063,0.045-0.097,0.066C238.803,558.309,230.882,555.142,226.926,550.39z"/>
<path fill="#E24242" d="M437.111,475.067c0,2.899-2.347,5.245-5.246,5.245l0,0c-2.896,0-5.242-2.346-5.242-5.245v-19.199
	c0-2.898,2.346-5.245,5.242-5.245l0,0c2.898,0,5.246,2.347,5.246,5.245V475.067z"/>
<path fill="#74A329" d="M920.04,611.354c13.123-32.104,44.67-54.725,81.497-54.725c23.838,0,45.453,9.479,61.303,24.862
	c10.641-8.064,23.176-13.761,36.812-16.317c1.592-33.688,29.4-60.511,63.483-60.511c12.58,0,24.311,3.656,34.176,9.965
	c18.724-24.008,47.914-39.447,80.716-39.447c2.466,0,4.918,0.09,7.334,0.266V644.65"/>
<path fill="#74A329" d="M800.439,617.381c3.46-17.15,18.614-30.063,36.777-30.063c14.671,0,27.372,8.419,33.539,20.687"/>
<path fill="#548722" d="M1238.456,615.208c7.157-32.955,39.037-54.79,72.643-49.134c12.409,2.088,23.366,7.641,32.053,15.5"/>
<path fill="#548722" d="M1053.67,630.934c18.275-29.483,53.135-46.557,89.448-40.438c23.501,3.956,43.25,16.892,56.325,34.695"/>
<path fill="#548722" d="M934.729,617.017c6.259-16.335,23.348-26.555,41.26-23.538c14.464,2.437,25.589,12.846,29.641,25.967"/>
<line fill="none" x1="1256.41" y1="76.323" x2="1256.41" y2="644.65"/>
<rect id="_x3C_Slice_x3E_" x="1" y="2" fill="none" width="1276" height="597"/>
</svg>
