<?xml version="1.0" encoding="utf-8"?>
<!-- Generator: Adobe Illustrator 16.0.0, SVG Export Plug-In . SVG Version: 6.00 Build 0)  -->
<!DOCTYPE svg PUBLIC "-//W3C//DTD SVG 1.1//EN" "http://www.w3.org/Graphics/SVG/1.1/DTD/svg11.dtd">
<svg version="1.1" id="Layer_1" xmlns="http://www.w3.org/2000/svg" xmlns:xlink="http://www.w3.org/1999/xlink" x="0px" y="0px"
	 width="1450px" height="50px" viewBox="0 0 1450 50" enable-background="new 0 0 1450 50" xml:space="preserve">
<rect x="-19.721" y="0" fill-rule="evenodd" clip-rule="evenodd" fill="#FFED00" width="1491.721" height="49.321"/>
<polygon fill-rule="evenodd" clip-rule="evenodd" points="1101.627,49.319 1084.734,49.319 1071.751,24.66 1084.734,0 1101.627,0 
	1088.645,24.66 "/>
<path fill-rule="evenodd" clip-rule="evenodd" d="M1135.771,49.319c-5.631,0-11.262,0-16.893,0
	c-4.327-8.219-8.655-16.439-12.983-24.66c4.328-8.22,8.656-16.439,12.983-24.66c5.631,0,11.262,0,16.893,0
	c-4.327,8.221-8.655,16.44-12.982,24.66C1127.115,32.88,1131.443,41.101,1135.771,49.319z"/>
<path fill-rule="evenodd" clip-rule="evenodd" d="M1169.915,49.319c-5.632,0-11.263,0-16.895,0
	c-4.328-8.219-8.655-16.439-12.982-24.66c4.327-8.22,8.654-16.439,12.982-24.66c5.632,0,11.263,0,16.895,0
	c-4.328,8.221-8.656,16.44-12.984,24.66C1161.259,32.88,1165.587,41.101,1169.915,49.319z"/>
<path fill-rule="evenodd" clip-rule="evenodd" d="M1204.057,49.319c-5.63,0-11.262,0-16.892,0
	c-4.328-8.219-8.656-16.439-12.984-24.66c4.328-8.22,8.656-16.439,12.984-24.66c5.63,0,11.262,0,16.892,0
	c-4.327,8.221-8.655,16.44-12.981,24.66C1195.401,32.88,1199.729,41.101,1204.057,49.319z"/>
<path fill-rule="evenodd" clip-rule="evenodd" d="M1238.201,49.319c-5.631,0-11.262,0-16.894,0
	c-4.328-8.219-8.655-16.439-12.983-24.66c4.328-8.22,8.655-16.439,12.983-24.66c5.632,0,11.263,0,16.894,0
	c-4.327,8.221-8.655,16.44-12.983,24.66C1229.546,32.88,1233.874,41.101,1238.201,49.319z"/>
<path fill-rule="evenodd" clip-rule="evenodd" d="M1272.345,49.319c-5.632,0-11.262,0-16.895,0
	c-4.328-8.219-8.654-16.439-12.982-24.66c4.328-8.22,8.654-16.439,12.982-24.66c5.633,0,11.263,0,16.895,0
	c-4.328,8.221-8.655,16.44-12.983,24.66C1263.689,32.88,1268.017,41.101,1272.345,49.319z"/>
<path fill-rule="evenodd" clip-rule="evenodd" d="M1306.487,49.319c-5.631,0-11.263,0-16.892,0
	c-4.329-8.219-8.656-16.439-12.984-24.66c4.328-8.22,8.655-16.439,12.984-24.66c5.629,0,11.261,0,16.892,0
	c-4.327,8.221-8.655,16.44-12.982,24.66C1297.832,32.88,1302.16,41.101,1306.487,49.319z"/>
<path fill-rule="evenodd" clip-rule="evenodd" d="M1340.631,49.319c-5.631,0-11.261,0-16.893,0
	c-4.328-8.219-8.656-16.439-12.984-24.66c4.328-8.22,8.656-16.439,12.984-24.66c5.632,0,11.262,0,16.893,0
	c-4.327,8.221-8.654,16.44-12.982,24.66C1331.977,32.88,1336.304,41.101,1340.631,49.319z"/>
<path fill-rule="evenodd" clip-rule="evenodd" d="M1374.774,49.319c-5.632,0-11.263,0-16.894,0
	c-4.327-8.219-8.654-16.439-12.983-24.66c4.329-8.22,8.656-16.439,12.983-24.66c5.631,0,11.262,0,16.894,0
	c-4.328,8.221-8.656,16.44-12.983,24.66C1366.118,32.88,1370.446,41.101,1374.774,49.319z"/>
<path fill-rule="evenodd" clip-rule="evenodd" d="M1408.917,49.319c-5.631,0-11.263,0-16.892,0
	c-4.329-8.219-8.656-16.439-12.983-24.66c4.327-8.22,8.654-16.439,12.983-24.66c5.629,0,11.261,0,16.892,0
	c-4.326,8.221-8.654,16.44-12.982,24.66C1400.263,32.88,1404.591,41.101,1408.917,49.319z"/>
<polygon fill-rule="evenodd" clip-rule="evenodd" points="1443.062,49.319 1426.168,49.319 1413.186,24.66 1426.168,0 1443.062,0 
	1430.078,24.66 "/>
<polygon fill-rule="evenodd" clip-rule="evenodd" points="730.627,49.319 713.734,49.319 700.751,24.66 713.734,0 730.627,0 
	717.645,24.66 "/>
<path fill-rule="evenodd" clip-rule="evenodd" d="M764.771,49.319c-5.631,0-11.262,0-16.893,0
	c-4.327-8.219-8.655-16.439-12.983-24.66c4.328-8.22,8.656-16.439,12.983-24.66c5.631,0,11.262,0,16.893,0
	c-4.327,8.221-8.655,16.44-12.982,24.66C756.115,32.88,760.443,41.101,764.771,49.319z"/>
<path fill-rule="evenodd" clip-rule="evenodd" d="M798.915,49.319c-5.632,0-11.263,0-16.895,0
	c-4.328-8.219-8.655-16.439-12.982-24.66c4.327-8.22,8.654-16.439,12.982-24.66c5.632,0,11.263,0,16.895,0
	c-4.328,8.221-8.656,16.44-12.984,24.66C790.259,32.88,794.587,41.101,798.915,49.319z"/>
<path fill-rule="evenodd" clip-rule="evenodd" d="M833.057,49.319c-5.63,0-11.262,0-16.892,0
	c-4.328-8.219-8.656-16.439-12.984-24.66c4.328-8.22,8.656-16.439,12.984-24.66c5.63,0,11.262,0,16.892,0
	c-4.327,8.221-8.655,16.44-12.981,24.66C824.401,32.88,828.729,41.101,833.057,49.319z"/>
<path fill-rule="evenodd" clip-rule="evenodd" d="M867.201,49.319c-5.631,0-11.262,0-16.894,0
	c-4.328-8.219-8.655-16.439-12.983-24.66c4.328-8.22,8.655-16.439,12.983-24.66c5.632,0,11.263,0,16.894,0
	c-4.327,8.221-8.655,16.44-12.983,24.66C858.546,32.88,862.874,41.101,867.201,49.319z"/>
<path fill-rule="evenodd" clip-rule="evenodd" d="M901.345,49.319c-5.632,0-11.262,0-16.895,0
	c-4.328-8.219-8.654-16.439-12.982-24.66c4.328-8.22,8.654-16.439,12.982-24.66c5.633,0,11.263,0,16.895,0
	c-4.328,8.221-8.655,16.44-12.983,24.66C892.689,32.88,897.017,41.101,901.345,49.319z"/>
<path fill-rule="evenodd" clip-rule="evenodd" d="M935.487,49.319c-5.631,0-11.263,0-16.892,0
	c-4.329-8.219-8.656-16.439-12.984-24.66c4.328-8.22,8.655-16.439,12.984-24.66c5.629,0,11.261,0,16.892,0
	c-4.327,8.221-8.655,16.44-12.982,24.66C926.832,32.88,931.16,41.101,935.487,49.319z"/>
<path fill-rule="evenodd" clip-rule="evenodd" d="M969.631,49.319c-5.631,0-11.261,0-16.893,0
	c-4.328-8.219-8.656-16.439-12.984-24.66c4.328-8.22,8.656-16.439,12.984-24.66C958.37,0,964,0,969.631,0
	c-4.327,8.221-8.654,16.44-12.982,24.66C960.977,32.88,965.304,41.101,969.631,49.319z"/>
<path fill-rule="evenodd" clip-rule="evenodd" d="M1003.774,49.319c-5.632,0-11.263,0-16.894,0
	c-4.327-8.219-8.654-16.439-12.983-24.66c4.329-8.22,8.656-16.439,12.983-24.66c5.631,0,11.262,0,16.894,0
	c-4.328,8.221-8.656,16.44-12.983,24.66C995.118,32.88,999.446,41.101,1003.774,49.319z"/>
<path fill-rule="evenodd" clip-rule="evenodd" d="M1037.917,49.319c-5.631,0-11.263,0-16.892,0
	c-4.329-8.219-8.656-16.439-12.983-24.66c4.327-8.22,8.654-16.439,12.983-24.66c5.629,0,11.261,0,16.892,0
	c-4.326,8.221-8.654,16.44-12.982,24.66C1029.263,32.88,1033.591,41.101,1037.917,49.319z"/>
<polygon fill-rule="evenodd" clip-rule="evenodd" points="1072.062,49.319 1055.168,49.319 1042.186,24.66 1055.168,0 1072.062,0 
	1059.078,24.66 "/>
<polygon fill-rule="evenodd" clip-rule="evenodd" points="359.627,49.319 342.734,49.319 329.751,24.66 342.734,0 359.627,0 
	346.645,24.66 "/>
<path fill-rule="evenodd" clip-rule="evenodd" d="M393.771,49.319c-5.631,0-11.262,0-16.893,0
	c-4.327-8.219-8.655-16.439-12.983-24.66c4.328-8.22,8.656-16.439,12.983-24.66c5.631,0,11.262,0,16.893,0
	c-4.327,8.221-8.655,16.44-12.982,24.66C385.115,32.88,389.443,41.101,393.771,49.319z"/>
<path fill-rule="evenodd" clip-rule="evenodd" d="M427.915,49.319c-5.632,0-11.263,0-16.895,0
	c-4.328-8.219-8.655-16.439-12.982-24.66c4.327-8.22,8.654-16.439,12.982-24.66c5.632,0,11.263,0,16.895,0
	c-4.328,8.221-8.656,16.44-12.984,24.66C419.259,32.88,423.587,41.101,427.915,49.319z"/>
<path fill-rule="evenodd" clip-rule="evenodd" d="M462.057,49.319c-5.63,0-11.262,0-16.892,0
	c-4.328-8.219-8.656-16.439-12.984-24.66c4.328-8.22,8.656-16.439,12.984-24.66c5.63,0,11.262,0,16.892,0
	c-4.327,8.221-8.655,16.44-12.981,24.66C453.401,32.88,457.729,41.101,462.057,49.319z"/>
<path fill-rule="evenodd" clip-rule="evenodd" d="M496.201,49.319c-5.631,0-11.262,0-16.894,0
	c-4.328-8.219-8.655-16.439-12.983-24.66c4.328-8.22,8.655-16.439,12.983-24.66c5.632,0,11.263,0,16.894,0
	c-4.327,8.221-8.655,16.44-12.983,24.66C487.546,32.88,491.874,41.101,496.201,49.319z"/>
<path fill-rule="evenodd" clip-rule="evenodd" d="M530.345,49.319c-5.632,0-11.262,0-16.895,0
	c-4.328-8.219-8.654-16.439-12.982-24.66c4.328-8.22,8.654-16.439,12.982-24.66c5.633,0,11.263,0,16.895,0
	c-4.328,8.221-8.655,16.44-12.983,24.66C521.689,32.88,526.017,41.101,530.345,49.319z"/>
<path fill-rule="evenodd" clip-rule="evenodd" d="M564.487,49.319c-5.631,0-11.263,0-16.892,0
	c-4.329-8.219-8.656-16.439-12.984-24.66c4.328-8.22,8.655-16.439,12.984-24.66c5.629,0,11.261,0,16.892,0
	c-4.327,8.221-8.655,16.44-12.982,24.66C555.832,32.88,560.16,41.101,564.487,49.319z"/>
<path fill-rule="evenodd" clip-rule="evenodd" d="M598.631,49.319c-5.631,0-11.261,0-16.893,0
	c-4.328-8.219-8.656-16.439-12.984-24.66c4.328-8.22,8.656-16.439,12.984-24.66C587.37,0,593,0,598.631,0
	c-4.327,8.221-8.654,16.44-12.982,24.66C589.977,32.88,594.304,41.101,598.631,49.319z"/>
<path fill-rule="evenodd" clip-rule="evenodd" d="M632.774,49.319c-5.632,0-11.263,0-16.894,0
	c-4.327-8.219-8.654-16.439-12.983-24.66c4.329-8.22,8.656-16.439,12.983-24.66c5.631,0,11.262,0,16.894,0
	c-4.328,8.221-8.656,16.44-12.983,24.66C624.118,32.88,628.446,41.101,632.774,49.319z"/>
<path fill-rule="evenodd" clip-rule="evenodd" d="M666.917,49.319c-5.631,0-11.263,0-16.892,0
	c-4.329-8.219-8.656-16.439-12.983-24.66c4.327-8.22,8.654-16.439,12.983-24.66c5.629,0,11.261,0,16.892,0
	c-4.326,8.221-8.654,16.44-12.982,24.66C658.263,32.88,662.591,41.101,666.917,49.319z"/>
<polygon fill-rule="evenodd" clip-rule="evenodd" points="701.062,49.319 684.168,49.319 671.186,24.66 684.168,0 701.062,0 
	688.078,24.66 "/>
<polygon fill-rule="evenodd" clip-rule="evenodd" points="-12.373,49.319 -29.266,49.319 -42.249,24.66 -29.266,0 -12.373,0 
	-25.355,24.66 "/>
<path fill-rule="evenodd" clip-rule="evenodd" d="M21.771,49.319c-5.631,0-11.262,0-16.893,0C0.551,41.101-3.777,32.88-8.105,24.66
	C-3.777,16.44,0.551,8.221,4.878,0c5.631,0,11.262,0,16.893,0c-4.327,8.221-8.655,16.44-12.982,24.66
	C13.115,32.88,17.443,41.101,21.771,49.319z"/>
<path fill-rule="evenodd" clip-rule="evenodd" d="M55.915,49.319c-5.632,0-11.263,0-16.895,0
	c-4.328-8.219-8.655-16.439-12.982-24.66C30.365,16.44,34.692,8.221,39.021,0c5.632,0,11.263,0,16.895,0
	c-4.328,8.221-8.656,16.44-12.984,24.66C47.259,32.88,51.587,41.101,55.915,49.319z"/>
<path fill-rule="evenodd" clip-rule="evenodd" d="M90.057,49.319c-5.63,0-11.262,0-16.892,0c-4.328-8.219-8.656-16.439-12.984-24.66
	C64.509,16.44,68.837,8.221,73.165,0c5.63,0,11.262,0,16.892,0c-4.327,8.221-8.655,16.44-12.981,24.66
	C81.401,32.88,85.729,41.101,90.057,49.319z"/>
<path fill-rule="evenodd" clip-rule="evenodd" d="M124.201,49.319c-5.631,0-11.262,0-16.894,0
	c-4.328-8.219-8.655-16.439-12.983-24.66c4.328-8.22,8.655-16.439,12.983-24.66c5.632,0,11.263,0,16.894,0
	c-4.327,8.221-8.655,16.44-12.983,24.66C115.546,32.88,119.874,41.101,124.201,49.319z"/>
<path fill-rule="evenodd" clip-rule="evenodd" d="M158.345,49.319c-5.632,0-11.262,0-16.895,0
	c-4.328-8.219-8.654-16.439-12.982-24.66c4.328-8.22,8.654-16.439,12.982-24.66c5.633,0,11.263,0,16.895,0
	c-4.328,8.221-8.655,16.44-12.983,24.66C149.689,32.88,154.017,41.101,158.345,49.319z"/>
<path fill-rule="evenodd" clip-rule="evenodd" d="M192.487,49.319c-5.631,0-11.263,0-16.892,0
	c-4.329-8.219-8.656-16.439-12.984-24.66c4.328-8.22,8.655-16.439,12.984-24.66c5.629,0,11.261,0,16.892,0
	c-4.327,8.221-8.655,16.44-12.982,24.66C183.832,32.88,188.16,41.101,192.487,49.319z"/>
<path fill-rule="evenodd" clip-rule="evenodd" d="M226.631,49.319c-5.631,0-11.261,0-16.893,0
	c-4.328-8.219-8.656-16.439-12.984-24.66c4.328-8.22,8.656-16.439,12.984-24.66C215.37,0,221,0,226.631,0
	c-4.327,8.221-8.654,16.44-12.982,24.66C217.977,32.88,222.304,41.101,226.631,49.319z"/>
<path fill-rule="evenodd" clip-rule="evenodd" d="M260.774,49.319c-5.632,0-11.263,0-16.894,0
	c-4.327-8.219-8.654-16.439-12.983-24.66c4.329-8.22,8.656-16.439,12.983-24.66c5.631,0,11.262,0,16.894,0
	c-4.328,8.221-8.656,16.44-12.983,24.66C252.118,32.88,256.446,41.101,260.774,49.319z"/>
<path fill-rule="evenodd" clip-rule="evenodd" d="M294.917,49.319c-5.631,0-11.263,0-16.892,0
	c-4.329-8.219-8.656-16.439-12.983-24.66c4.327-8.22,8.654-16.439,12.983-24.66c5.629,0,11.261,0,16.892,0
	c-4.326,8.221-8.654,16.44-12.982,24.66C286.263,32.88,290.591,41.101,294.917,49.319z"/>
<polygon fill-rule="evenodd" clip-rule="evenodd" points="329.062,49.319 312.168,49.319 299.186,24.66 312.168,0 329.062,0 
	316.078,24.66 "/>
</svg>
